/* XPM */
static char *__empty[] = {
/* columns rows colors chars-per-pixel */
"50 50 66 1 ",
"  c #050605",
". c #080807",
"X c #0C0D0C",
"o c #0F100F",
"O c #10100F",
"+ c #141413",
"@ c #171816",
"# c #191A17",
"$ c #1B1C1B",
"% c #1F201E",
"& c #20211F",
"* c #232523",
"= c #272826",
"- c #282A27",
"; c #2A2C2A",
": c #2E312E",
"> c #30332F",
", c #333532",
"< c #363935",
"1 c #383B37",
"2 c #3B3D3A",
"3 c #3A4136",
"4 c #3E413D",
"5 c #40443E",
"6 c #43483D",
"7 c #424542",
"8 c #464A45",
"9 c #484C47",
"0 c #4A4D4A",
"q c #4A5045",
"w c #4E524C",
"e c #51554E",
"r c #53594F",
"t c #525652",
"y c #565A54",
"u c #595E56",
"i c #5A5E59",
"p c #5A6057",
"a c #5D625B",
"s c #60655E",
"d c #626660",
"f c #656A64",
"g c #686D66",
"h c #6A6E68",
"j c #6D726B",
"k c #70756F",
"l c #727770",
"z c #757A74",
"x c #787D77",
"c c #7A7F79",
"v c #7D827C",
"b c #80857F",
"n c #81887F",
"m c #818680",
"M c #858A84",
"N c #888E87",
"B c #898F88",
"V c #899087",
"C c #8C928B",
"Z c #90968F",
"A c #90998E",
"S c #919690",
"D c #939A92",
"F c #9AA198",
"G c #A2A9A1",
"H c #A9B4A8",
/* pixels */
"kw+yiy07+embcmxfhc:;dtis4+yfjjpfjlhO7t:>y;4Csfzcvz",
"h#8DMMcm2*bmbMlxmsXlBvBCh$>aaagjcS2%Bhqavd+gxzzjvc",
"2@mvkbzMc+0mxlvml#%hsjlld0OyhflvBh.avtyfzM,*gjjxzg",
".yMmMccNv7+hkzvM0+ffkdxzkc,;bccvv%;lhhfavztOyvfvvi",
"-mcmNmclhs-@***;XtNlkhxMxky@*-*==+ddjvzkpjk7$;%$=@",
"-lMcfhchjs%,tw14$2lbcfjMzj0+71<;<@0vzzvMvvM,&01<77",
"$7Mlfaccv>$CDDvmtOdBcykmmz#1vjkkk;*bvvmCnCdXkMZCvb",
"0OdxhdlMhXvCwfMjk;=fdhlvm4#njadvvi$2jkzCvb&7vyxvjv",
"d:=fhbbc$,H0afvcxg+4jMbviXiDliflzbw+hzcvC0+bv3azxj",
"g0X+$*=$@cbklzqijM0+=*-=@;cfjhflvjx;%=*==otba7dbvk",
"e<+00007%dCDBvydbB<&tw00,*lsxmczjjj$<w87t&0l1gcmzv",
"8O<NBNMN,#jbvzkhbaXdMkglz$8Mvlmmsl2*mBMBMu+fzbbfjf",
"2+eixklla#1dzvbcf@2xzy9yzi+fbjlkhaO0dgvMzj=;Mxihjv",
"XycymMbkbw+hvjcz8OBvMzkgbc%;DMy9j=:glvMMcvj@izgvBz",
",bclBmbxvv;$-$#*+tBxvxbcMgq@;**@@@bMnvjjzcl2+;;==%",
"-xmMvbxshj$,w074$7kgzvcxzg4+0y9w0$anf4wjvvc;*w8w02",
"$0Mvvvbfd;&njscvy+fBbbvvj8o0GCCvv<+ay7pzbvaXdbMCBv",
"a@dzbCVB8.hAfwgvM<;jgvbvl:@CnCCdah@:hjfvbv%2MjszbA",
"x-=nCMBMO<DMbvllZc+8vvMv8XyVMvuzvMw.dvflc8+MMchzlb",
"Mf$--&;*Xizzlfjjvv4+=;-=+=vnAlsbmbc=@*$%%XtFMvzafv",
"Zi+80tyt$izjsjzvbf:$1478:&lbzbjdjgd$,7<20=4DAmcckv",
"f@8CMZDM>*bzjzgai8XiggvMz%5MmMd0if:$CvgfzdOflfllMv",
"<+fjmcbbf@wxzadzq+;gpgxvv0@flvgslaOfvaaijC<*jhjglM",
"O0jakjkzMw@zCgimw+yykkhxbz%-flzhl;:BgslzvMg+wzcjzj",
"<Mzgfiwyvj$%;&%=Oibszlsbvvw@&&=@$+acccBzczm8+**&=%",
":gkmziydlg+:y000=7xdvjjjlz8O00<w4OtMczMlbvz,=t8702",
"%,zjkaagM1%lxCBCfOfmvzvvbfX7FpfMv,&cMvvbxNs.ulvbMc",
"y$dhjpyftX0ajMlvM<:MvlvMV4+Md%skdd$tBvvmcb%2bdavMM",
"c:,bvvph$*gflbzlvv%ivaavj+8gzpjMzhw$zbNmb8+bMzhzcv",
"xa$;*&=#$wtsfxMvvM8+;%@$+:VjbzjvBcb;+&==;X0Blzkakv",
"xt+4q788%yfyazcvmz=$4000;&nMlzlMMhg@,7<8t==kzglzzk",
"s+7vvCmv:%zhddfjc2 yvjlld%4tazMMMc;*mNbmSiOiCMBDVh",
">+zfjjazh$tmzzssyo<nxpswa7OwthhlMa.dMxxklx<=bllCbg",
"XiMbbzdhct%hczaw:XaajCzvfq*>zkclM;;jimxfdxlX0zazba",
":Bzbmbziic:%****O8zjnnkvvja$=*==*Olhgvjxxcb4O=$*=$",
"=zmzMmzbvd$2t884%<lvbxxvbly@w87w8@ivcmcNSmb:%88257",
"$7NvCMMCn;$CmlBBwX7jvkbCCso0CjbMm2*xxkMMVDfXkBMzzv",
"t$dhfjMmi+dMjfyat==jcjzcM2@Mfdcmbx$8bxvmMx@,mlmzix",
"z:=hjzvf$<CMmaixzj$0faijjXgBfhvzzv<+hcxkd,XlbMdigv",
"id$*=**$XzABvsMvhz4O$$$*+:Bvdjcmbvl*@*%*&otDl87lvx",
"jt@8t988OeCZxzBlxv:*078t,*kgdzbcvmj#;<244%0byzgwrf",
"f@7CMBMM-*vCbMMhbaXhMjhNB$8ayzvbmB,*vjbBVy+ykxlypi",
"<@jjhvmje$9hkxMcz%<zjlcvCt+wggbbMhXsMjlcnm,=vvvvvz",
".7jisvzzh1XyszbNwXhhslmjvM;=zszvj%,Ccjgjxvj#avvvkp",
"=fyidcllll*$***=OtMhscCzxCz@=*=;%+hMvxjjbvC4+$*=%+",
"=y4slcvzks#<e580*7mcbczzxmf+48942#0kxvCCbvi#*w70w4",
"%7jplvmMc;$MZcBDtXaMmbfzxz+4BvZct<*xxbZvzv: kDbvvl",
"0%wefhcNdXyfzhzmz;:bxczkb4OMcxMMaj$wMnMnMyX2Dbdajl",
"y%-aasvz%:f3ajjvvj@8nzlcao7Mmxzzgx8OdxbCz1OvGzjzar",
"feo%%;:%ohjpjvvjfv9#<>:>@$jzbjshzaf&&;,;=+tlwdMnji"
};
