/* XPM */
static char *__wall[] = {
/* columns rows colors chars-per-pixel */
"50 50 78 1 ",
"  c #AB927F",
". c #B4957F",
"X c #B8977E",
"o c #7F989F",
"O c #7F98A0",
"+ c #9E9387",
"@ c #8F9694",
"# c #85969A",
"$ c #88979A",
"% c #85999E",
"& c #8C9B9D",
"* c #929694",
"= c #949996",
"- c #9D9B95",
"; c #939D9C",
": c #9C9E9A",
"> c #A49485",
", c #AC9685",
"< c #AF9887",
"1 c #A4968A",
"2 c #AA9788",
"3 c #A6998D",
"4 c #AD9A8B",
"5 c #B29683",
"6 c #B49985",
"7 c #BA9B85",
"8 c #B59D8B",
"9 c #B99E8A",
"0 c #A39D95",
"q c #AB9D92",
"w c #A49F98",
"e c #B39F90",
"r c #97A09F",
"t c #9DA19E",
"y c #BEA086",
"u c #B6A08F",
"i c #BAA18E",
"p c #A7A097",
"a c #ACA196",
"s c #A3A29C",
"d c #ABA49B",
"f c #B6A192",
"g c #BAA393",
"h c #BDA897",
"j c #B5A599",
"k c #BAA698",
"l c #B7A99D",
"z c #BBA99B",
"x c #859DA3",
"c c #8B9EA2",
"v c #919EA0",
"b c #86A0A7",
"n c #8BA0A6",
"m c #86A1A9",
"M c #8BA3AA",
"N c #95A2A4",
"B c #9BA4A4",
"V c #9FA8A7",
"C c #95A6AA",
"Z c #9AA6A9",
"A c #95A8AE",
"S c #9BA9AC",
"D c #91A9B2",
"F c #9EADB1",
"G c #A3A5A2",
"H c #AAA6A0",
"J c #A7AAA7",
"K c #ADAAA4",
"L c #A0ABAC",
"P c #B0A9A1",
"I c #B3AFA9",
"U c #A4AFB1",
"Y c #A6B2B4",
"T c #C09F84",
"R c #C1A38C",
"E c #C1A592",
"W c #C4A893",
"Q c #C5AC99",
/* pixels */
"ZBZBBZSSUYFCMSGBZSSSCSLVSC;;tNCZBLLSSmAZVZVZCCSC;r",
"ii9i8878ejjaMd77998gkgiyzlfggk8ukghzKMH8fi87uu7gi8",
"797X587887uqxd99ig8jyuu7zzjfikfuuuuQIxd888877<.786",
"9if8fuugf880xaiTRi8fuu8fkjkfkkk7u87WPxj78ifuu878u4",
"h7847788885q%a877ikku64fjju<,u88ufyQdoj.68ffffffug",
"g8887688998q%d876uiu7uuffau65u8ufuuQaof888eee8e48f",
"7.577587i77sbdi977yy.uyyuighiWiiRygWsnd78776577599",
"13--ttt;;;;nbCZBrtsttsGGssastGtstrrNMMN;@@*=-:--00",
"MMNrNNSCACZZBSYVSDBBBvSLSmcvBNNZCCNNC;BNvvCCGvZZCA",
"NMe8g77787yg7igRg9897ejjaNM88i97uu7yh7gEWEee98eejq",
"vcq98u776.78<9y77.587989uN%qf88766.7768y97768798qe",
";ce89ff8u878888u69e9gj98fr&889f8u867u48u879e9ee88f",
";&488ejffkfffkiifkffje848;%2<8e88e8fegg9eee8ee9758",
";&8648fefu48ugi8q8fff8487=%8<88j88848ekg8eeeeee867",
";;77,588<868u75,665686897:&5.,685<8889787778999968",
"&c4e822886<68662164444qqqcc>24448455878<2<<4<2211>",
"cxxxccxcccccvcccmMMmcccxxxcxxxcxbnnnc;ccxMMMcMcxOO",
"ww3wGvJwsGHCMZLwpaaswee433q0wsGHddJVAMZsssspsqqqq0",
"e9ThgEET77EwcdTTggef9eeg899TEegE777R-mdT9gggeeeeg8",
"e8988e989e9wxq7gk887e9ee888998e888ii0Oq778glzzeejf",
"hee9eeh8egEwx4gge89gjeeeeeEeeehg8fzg:%ai9ePQhee9eg",
"ekgeehEezzg:x2ee9eeje888eekeeezEfgggtb4u9geee48<ee",
"eee986887990x46588ee86<<9eee886887i71n4u888ee8554e",
"5<775678885-Mq8,84<<55,,785775788786-n4<,<<82<,554",
"&vc&vZCv&&nbMc&%#&n&&$#&v&$v&vvvn&vnxbv$%ccNn&&&&;",
"DSVVvSCCCVVVVBZZBZNrVsBNcCLvvvvLASFLVrVZZVZCSGBSSM",
"UeEE9gkjkh8ikggi9ggigf8jFL97T99Tifiuuuig8gggy89ijU",
"Aeee9985787u87778i78g8uiZv999eeeuuuu6X7u8izgii87gS",
"Af789gg89yff87ufgkfukgigCryiT9996u<6288e88jfglgigC",
"Suu79gf8fjkkeufkgfuuuuui;ruy79g76uufq48fgg8eejgg9v",
"Su87ffeef4ufajkgf8uffu6yNN55778iu8u44488ugg8egeEzv",
"Vi867979yyiuygWiigiigggfNSu5y7Tyyu875889977797799V",
"M;;==ts=rt::s0:=;Gw:;vvBxAN;N:st;Nr-::-w::Gvw::*:M",
"rCNNMNtCNNNAMMn;vvvCZCvCvLLvCANANNCCAMccvvvSAFSvCv",
"9ggigyy8uukfsMG7eE769769g7EEgg8i78fjkwMwTeT98987gE",
"8yy7.5877u89wx:e8887667786997.787998ewx-e89e775778",
"88776f8fge8ejc:88eee7e78e88985688ui88do-888888878e",
"gf88ffuyee88qc:568778e8eeeg78878887770x-iu8fgefffe",
"jgifuff878<58c-,<8888ee89kz98e8ef8u881x386<<6<8f88",
"7555666877667v0 55786666995X5766555571n475,68<6689",
"875<264234qq0At446,2866<885<12<,>1112-n*243<4e8558",
"ccxxxMMMccxcMMbxccxcMcMvvcccxxMMMmxxxmMbxxxxmcMMcv",
"MGaGsdwwqeqqqp0-GGGsGHGvcDvGvGG:wwss:-p-:wVwssGVZM",
"B99gggge88eg9i999EER78R6vvR9EEEEe889iii9yggET7798c",
"v78egge8888f889i9ee9Re9Ecv77Qzkeg8e8f878e888998if&",
";8eegj98887888ui9ee89ezecv99e9eej8i98e8f98egg8ggec",
"=8hegef8e88f8uufeeQeezeex*9ee9eeq88e8ejg9ee98gg8ec",
"=7688ee485288jg89e8e99R5c=789eee885288gge8868899<c",
"v8524582,,<8<8<885858782cve5<46<<5<,<<8685588778+c",
"Cvcccv&cc*v*=**=vvvvvvvvccv$cv;&;;@@==@@@;vvvv;ccc"
};
