/* XPM */
static char *__wall1[] = {
/* columns rows colors chars-per-pixel */
"50 50 37 1 ",
"  c #BF2F0B",
". c #BF310C",
"X c #BF3310",
"o c #BF3411",
"O c #BF3714",
"+ c #BF3815",
"@ c #BE3B18",
"# c #BE3E1B",
"$ c #BE3F1C",
"% c #BE401D",
"& c #BE4320",
"* c #BE4522",
"= c #BE4624",
"- c #BD4926",
"; c #BD4B29",
": c #BD4D2B",
"> c #BD4F2C",
", c #BD502E",
"< c #BD5331",
"1 c #BD5533",
"2 c #BD5634",
"3 c #BC5837",
"4 c #BC5A39",
"5 c #BC5C3A",
"6 c #BC5D3B",
"7 c #BC5E3D",
"8 c #BC5F3F",
"9 c #BC603F",
"0 c #BC6141",
"q c #BC6342",
"w c #BB6645",
"e c #BC6444",
"r c #BB6847",
"t c #BB6A49",
"y c #BB6B4B",
"u c #BB6C4C",
"i c #BB7050",
/* pixels */
"uw7777tt77777777775777777577575750077477977709779w",
"u<.o..70o...X..o.o...o.Xo.o..o...;:...o......o...7",
"u<....70.o....X..oo.X..o...oo.o..:-.oo.X......o..9",
"0+..o.79o.oo.o.X..o..o...oo...o.#w-...o..o.o.o...9",
"7..o..70o....X..o.o..o...o.oXo..#u*..o..o..o...o.5",
"7o...o70o..o..ooo......*,o....o.#u4+..oo.oo..oo..7",
"7Ooooo70+o+o+ooooooo+oo%=Ooooooo*uu%ooooOoOooo$>+7",
"0ttrwtueww7wttwttttttwtwwtrrtttttuutttwttwtwwttw4t",
"@12tw2<@7u%<2111121213u01121111122211122222u022-.>",
"...*%.o,72o......... #7+ ..................<>.....",
".o...o>&,*O:o..X.O>..&2..o.Xo...o.o..o.....*,..oo.",
"..o...o..o.o..o.X.o.X23...X...o....o...o...>,..o..",
"o...X....oo..o.o.o.oo,2..o..X........o..oo+t<....o",
"%55575##:oooooooooooo:w4$oooo&771oo+Oo+ooo#t<ooooo",
"tut0wut774ewrrw00trwwwuitwwtw70004444444447t747www",
"22%.$21Ooo,2223-=3222tw22222,oooooo.ooo.ooo;.o+2wu",
"....................ow3 ......o.o.X.o.o....o....<2",
"o.o..o.o+o...o.......w3.....o............oo...o.,&",
".......+- ......#o%*&r7&%...o+@&%%&%*+.........o4%",
":>>>>>>>::::>>::73tuuuuut,>><07uuuuuu7:::::>:::3u2",
"tuuuutuuuuuuuuuuut<tttttttuuu74ttttttu,>tut<utuutt",
"++#++$4ut07:>37+<7O++++@+#2<@oo@+@@@@+o.@++o+@+#+@",
"......ow2.o..o=$.o.#+....+77+X...oX....o..........",
"oo..o.ot2.o..o,2...%$-o.o+75o..o.X..o..X.oo.o..oo.",
"...o.oot2..o..o@..o..#o..%tu#........o..o...o.o..o",
".o.o..ow:....o..oX..X.....>u+...................o.",
"......o0%............o%.&+4u<&%::;;:>:;::;>>%.....",
"%43+%5%ww3334433243337e1w7tuuw0uuutttutuuuuu023443",
"7ww77w7wwwwwwww11wwwuu7#%4#2w2#@#@@#+##*w0**<7uwww",
"oooooooooooooooooooX4i3....ooo..o.......ooo..4wooo",
"..o.o...o......X.X..4u4...X.X...o......o.o...4>o..",
"...o...o..oo.XX.X.X.4u4..o.X.X.o.o.o.o..o.o..3+.o.",
"o.o..o..o..o...oo...7u>..o....o..o...o.o.o.o.3#.o.",
".o.....oo...o.o.....4t&......................2@...",
"ooooooo.o.ooo.o..oo.4ut*>:=22:=23242222223222e#..o",
"44454440e5470e005007twt00e0utw0twwtiiuttiuuttw00e0",
"ooOoo++5u;o&775>o2<-4@&-o+%:%>ooo#7745%$44w,-+275t",
"o..oo..#u-......o........+&...X..-u$......:-.....7",
".....o.%u-..o..oX.X.X..oo..X.X.X.-t%.o......o....9",
"$.o....%u-.o.o...X.X.X.o.oX.o.X..:u4o.o..oo..o.o.7",
":o.o.o.#u-..oo.o.X...o...oo...o..%1+.o..o..o.o..o7",
"..o.o.o2u-.....oo.oXo.o.o...oo...$1,o.o..o..o.oo.5",
"5004050uuw00744777e000770e74770e2,iu0e00099009e90t",
"%77%7-<77777:oo==<777u4;77>+,*77747577797tut577779",
".o.o.o.oo..o...o.X.Xo0-..o..o.X....oX.X..*t7.o.oo.",
"..o.o.....o..oo.o.X.o4.o...o...X.oo..o.X..*4......",
".....o.o.oo..o...o.oo5o.o.o..oo..o..o.o..o+4+..o.o",
"oo....o.....o..o..o.%7o....o.o..o.o....o..+t,.o...",
".oo-o.o...o..o..o...5t2%..o..o.o.o.o...o..+t1...o.",
"1.>t7*<7777777757777tuuw4777775777477777570tw77579"
};
