/* XPM */
static char *C_collectible[] = {
/* columns rows colors chars-per-pixel */
"50 50 183 2 ",
"   c #010100",
".  c #080703",
"X  c #0D0A04",
"o  c #110E06",
"O  c #151107",
"+  c #171308",
"@  c #1C1609",
"#  c #141513",
"$  c #181A17",
"%  c #1C1D1B",
"&  c #251E0C",
"*  c #1F201E",
"=  c #2A210E",
"-  c #2D2512",
";  c #23231E",
":  c #342A13",
">  c #352B14",
",  c #3B3116",
"<  c #1F2221",
"1  c #232523",
"2  c #262826",
"3  c #2A2A24",
"4  c #272929",
"5  c #2B2D2A",
"6  c #2E302E",
"7  c #30322F",
"8  c #3B3829",
"9  c #323532",
"0  c #363934",
"q  c #393A35",
"w  c #3A3D3A",
"e  c #48370C",
"r  c #523E0C",
"t  c #473815",
"y  c #4B3C19",
"u  c #483F26",
"i  c #3E413E",
"p  c #5E450B",
"a  c #54431C",
"s  c #58471E",
"d  c #664B0B",
"f  c #6F510A",
"g  c #7B5601",
"h  c #7E5903",
"j  c #76560B",
"k  c #765A15",
"l  c #7A5F1B",
"z  c #7F6015",
"x  c #4C4020",
"c  c #584B28",
"v  c #5E512B",
"b  c #40423F",
"n  c #56523B",
"m  c #614D20",
"M  c #635022",
"N  c #685323",
"B  c #6E5923",
"V  c #65552C",
"C  c #755D27",
"Z  c #775F28",
"A  c #6A5D35",
"S  c #7B6222",
"D  c #76632E",
"F  c #7A6229",
"G  c #746331",
"H  c #796531",
"J  c #7C6936",
"K  c #72653E",
"L  c #3E4140",
"P  c #424541",
"I  c #464A44",
"U  c #4B4D44",
"Y  c #4A4E4A",
"T  c #4B5046",
"R  c #4D514C",
"E  c #595542",
"W  c #50544E",
"Q  c #4F5250",
"!  c #525651",
"~  c #565A54",
"^  c #595D56",
"/  c #5A5E59",
"(  c #5D625B",
")  c #69654A",
"_  c #706743",
"`  c #766A42",
"'  c #7C6D41",
"]  c #796F4C",
"[  c #7C714C",
"{  c #6A6A55",
"}  c #61665E",
"|  c #7D7452",
" . c #73715E",
".. c #7B755B",
"X. c #616660",
"o. c #646A63",
"O. c #6A6E66",
"+. c #676D68",
"@. c #6A6F69",
"#. c #6F7166",
"$. c #6D726C",
"%. c #747464",
"&. c #71756E",
"*. c #75786F",
"=. c #7D7C6B",
"-. c #727771",
";. c #757A74",
":. c #787D76",
">. c #797E78",
",. c #865E02",
"<. c #815E0B",
"1. c #866006",
"2. c #8A6205",
"3. c #86610C",
"4. c #8F6608",
"5. c #946A0B",
"6. c #996F0F",
"7. c #846313",
"8. c #886410",
"9. c #83651C",
"0. c #88681A",
"q. c #9D7312",
"w. c #A17715",
"e. c #A77C19",
"r. c #A97E1A",
"t. c #826621",
"y. c #866A24",
"u. c #846A2B",
"i. c #896D2E",
"p. c #836D34",
"a. c #84713B",
"s. c #937531",
"d. c #977832",
"f. c #997A33",
"g. c #857544",
"h. c #83754A",
"j. c #837A58",
"k. c #807C64",
"l. c #7D8074",
"z. c #7D827C",
"x. c #AF831E",
"c. c #B0841F",
"v. c #B28620",
"b. c #B68923",
"n. c #BA8D26",
"m. c #BF9129",
"M. c #A38236",
"N. c #AA8839",
"B. c #B28E3C",
"V. c #BA943E",
"C. c #C3952C",
"Z. c #C6982E",
"A. c #C8992F",
"S. c #CC9D32",
"D. c #CFA034",
"F. c #D2A337",
"G. c #D6A639",
"H. c #DCAC3D",
"J. c #868267",
"K. c #848575",
"L. c #81867E",
"P. c #CDA445",
"I. c #D2A746",
"U. c #D4A947",
"Y. c #DCB04A",
"T. c #E5B443",
"R. c #E8B746",
"E. c #EAB947",
"W. c #E3B54C",
"Q. c #E6B84D",
"!. c #ECBB4B",
"~. c #F0BE4B",
"^. c #F0BF50",
"/. c #F4C14E",
"(. c #F5C351",
"). c #F8C551",
"_. c #FFCB55",
"`. c #7F8580",
"'. c #818780",
"]. c #848A83",
"[. c #898E87",
"{. c #8C938A",
"}. c #969C95",
/* pixels */
"$.Y 1 ! / ^ Y I < Y k.`.>.`.>.@.$.-.9 9 ( / ( ( b * Q X.@.@.} X.$.-.X.* P R 0 0 W 7 i z.o.o.;.l.z.;.",
"( 1 Y ].'.'.:.;.b 6 >.].`.'.;.;.>.~ * +.z.>.].'.} 3 8 ^ } X.+.-.z.].i 5 :.O.T ( l.( 2 X.;.;.-.*.z.>.",
"q 2 ;.'.:.'.:.'.@.2 Y >.>.;.z.'.@.4 4 ) _ J t.t.7.f f l Z H ] =.L.X.% ~ ;./ ~ o.:.>.w 6 o.$.$.:.;.@.",
"# ~ z.'.'.>.>.].;.P 1 X.+.-.;.;.E e f j ,.,.,.,.,.,.,.,.,.,.,.<.S a 8 @.$.O.o.} ;.-.R * W $.o.-.-.~ ",
"5 ;.z.`.].`.>.-.$./ 5 < 4 5 u C <.,.,.,.,.,.,.,.,.,.,.,.,.,.,.,.,.,.h G #.z.;.&.X.$.$.i < 7 2 2 6 1 ",
"5 $.'.>.@.@.;.-.@.^ 2 w U a g ,.,.,.,.,.,.,.,.,.,.,.,.,.,.,.,.,.,.,.1.,.3.' l.].z.z.:.w 5 Y i i I L ",
"4 I >.;.+.X.:.>.-.0 5 j.y.2.,.,.,.,.,.,.,.4.q.r.c.v.c.r.w.5.,.,.,.,.,.,.,.,.y.J.].[.( < o.z.].`.;.>.",
"P < ( -.+.+.>.k.X.< V 3.,.,.,.,.,.,.5.b.G.!.^._._._._._./.!.G.b.6.,.,.,.1.,.,.8.| l.6 L -.( :.z.-.l.",
"/ 9 6 ( o.-.;.@.6 e ,.,.,.,.,.,.6.S.!._._._._._._._._._._._._._.!.S.q.,.,.,.,.,.3.v 2 -.;.I X.;.;.$.",
"X.I # * 2 5 7 4 e ,.,.,.,.,.2.n.!._._._._._._._._._._._._._._._._._./.m.2.,.,.1.1.g A :.( I o.>.z.-.",
"Y 0 % I Y ! Y c <.,.,.,.,.6.G._._._._._._._._._._._._._._._._._._._._._.H.q.,.,.,.,.8.) U o.>.L.;.;.",
"P $ w >.'.`.k.8.,.,.,.,.w.T._._._._._._._._._._._._._._._._._._._._._._._.E.w.1.1.,.,.7. .z.>.@.-.$.",
"0 * Q ( >.&.S ,.,.,.,.q.R._._._._._._._._._._._._._._._._._._._._._._._._._.!.w.,.,.,.,.i.:.o.@.$.z.",
"% ! -.( L.h.,.,.,.,.5.T._._._._._._._._._._._._._.).!.!.)._._._._._._._._._._.E.6.,.,.,.<._ o.-.z.$.",
"9 ;.>.;.K.0.,.,.,.,.D._._._._._._._._._._._.).I.s.y = : a f.W._._._._._._._._._.G.2.,.,.,.j q 6 6 2 ",
"6 -.'.'.g.,.,.,.,.c._._._._._._._._._._._.Y.M O             - f._._._._._._._._._.b.,.,.,.,.v W Q L ",
"1 R z.l.9.,.,.,.4.R._._._._._._._._._._.U.,     = N M.f.v @   O d.^._._._._._._._.!.6.,.,.,.y.'.`.l.",
"~ 2 ( | 1.,.,.,.b._._._._._._._._._._.Y.>   @ d.Q._._._._.I.y   . y Q._._._._._._._.n.,.,.,.<.k.`.{.",
"&.9 7 F ,.,.,.2.T._._._._._._._._._.).M   @ B._._._._._._._.W.a . - W._._._._._._._.T.4.,.,.,.g.;.`.",
"L./ ; j 1.,.,.w.(._._._._._._._._._.M.. . f._._._._._._._._._./.S.I._._._._._._._._.).e.,.,.,.l +.z.",
"[.~ - h 1.,.,.m._._._._._._._._._.Q.=   s (._._._._._._._._._._._._._._._.)._._._._._.C.,.,.,.7.#.z.",
"( 1 u <.,.,.,.G._._._._._._._._._.p.  @ I._._._._._._._._._._._._._._._._._._._._._._.Y.1.,.,.,.J.z.",
"9 1 A ,.,.,.2.R._._._._._._._._.Q.=   C _._._._._._._._._._._._._._._._._._._._._._._.!.5.,.,.,.| `.",
"% Y J ,.1.,.5./._._._._._._._._.V.X o P._._._._._._._._._._._._._._._._._._._._._._._.(.6.,.,.,.` +.",
"q >.p.,.,.,.6./._._._._._._._._.i.  : (._._._._._._._._._._._._._._._._._._._._._._._./.q.,.,.,.a 2 ",
"9 o.D ,.,.,.6./._._._._._._._._.B   s _._._._._._._._._._._._._._._._._._._._._._._._.).q.,.,.1.V L ",
"2 w H ,.,.,.6.~._._._._._._._._.F   y )._._._._._._._._._._._._._._._._._._._._._._._./.q.,.,.,.| :.",
"R 2 V ,.,.,.5.E._._._._._._._._.M.  @ U._._._._._._._._._._._._._._._._._._._._._._._./.5.,.,.,.j.[.",
"&.w t ,.,.,.2.H._._._._._._._._.W.&   F _._._._._._._._._._._._._._._._._._._._._._._.R.2.,.1.,...z.",
";.~ > h ,.,.,.S._._._._._._._._._.u.  O B._._._._._._._._._._._._._._._._._._._._._._.F.1.,.,.3.%.z.",
"-.Y ; h ,.,.,.x._._._._._._._._._.W.t   = P._._._._._._._._._._._._._._._._._._._._._.b.,.,.1.0.*.*.",
"~ 1 I F ,.,.,.6.!._._._._._._._._._.P.&   & V._._._._._._._._._._._._._._._._._._._./.q.,.1.1.g.].$.",
"7 1 $._ ,.,.,.,.D._._._._._._._._._._.V.&   + Z U.(._._.).!.N.U._._._._._._._._._._.F.,.,.,.3.J.`.$.",
"$ ~ '.=.8.,.,.,.w.(._._._._._._._._._._.P.,     + t a a a :   y )._._._._._._._._.).e.,.,.,.l %.;.( ",
"9 `.>.`.a.,.,.,.,.S._._._._._._._._._._._.Q.u.&             o i._._._._._._._._._.F.2.,.,.,.r 5 7 < ",
"5 @.`.>.J.<.,.,.,.6.E._._._._._._._._._._._._.W.N.F C C C J P._._._._._._._._._.~.q.,.,.,.<.E b I L ",
"1 I z.z.[.a.,.,.,.,.r.)._._._._._._._._._._._._._._._._._._._._._._._._._._._.).b.,.,.,.,.g.z.-.$.;.",
"Y 2 / @.@.O.0.,.,.,.,.C._._._._._._._._._._._._._._._._._._._._._._._._._._._.Z.1.,.,.,.9.*.z.-.( z.",
"@.0 7 ( o.$.] ,.,.,.,.2.C._._._._._._._._._._._._._._._._._._._._._._._._._.S.2.,.,.,.3.j.z.X.} +.l.",
"( ^ 1 6 6 6 5 r ,.,.,.,.,.n.(._._._._._._._._._._._._._._._._._._._._._.).C.,.,.,.,.3.h.-.W U @.;.l.",
"O.R * Y ! Y Y U d ,.,.,.,.2.r.R._._._._._._._._._._._._._._._._._._._.E.x.1.,.,.,.,.C &.( &.o.~ ( ( ",
"( 2 P z.'.`.`.:.0 d ,.,.,.,.,.5.C.!._._._._._._._._._._._._._._._./.A.5.,.,.,.,.,.B 3 W $.:.&.( ( ( ",
"9 < o.$.$.z.`.$.R 3 p ,.,.,.,.,.,.6.m.R.)._._._._._._._._._.).R.C.q.,.,.,.,.,.1.a.:.w 7 :.z.l.:.;.-.",
"# P o.( o.>.:.-.X.w ; m <.,.,.,.,.,.,.4.w.n.D.H.T.R.T.H.D.n.w.2.,.,.,.,.,.,.<.` :.z.+.2 ~ -.:.-.@.~ ",
"2 ( ~ ( o.>.-.-.-.+.2 1 , d ,.,.,.,.,.,.,.,.,.1.2.2.2.1.,.,.,.,.,.,.,.,.1.u. .*.z.z.z.w < 2 5 9 5 * ",
"4 ! T ( $.>.z.;.$.~ ; w R U K 0.,.,.,.,.,.,.,.,.1.1.,.1.,.,.,.,.,.,.1.z [ l.].[.L.z.^ ; 4 Y I Y R L ",
"2 b ( ( &.z.'.'.;.9 4 ;.'.>.'.K.K d h 1.,.,.,.,.,.,.1.,.1.1.1.1.h k x #.:.`.{.z.>.-.7 # +.].>.-.;.$.",
"I 2 T ~ o.$.>.'./ % R o.;.$.;.'.$.8 8 ` J 9.7.3.3.h ,.3.0.9.a.| { X.4 R z.].].].z.~ % P [.L.@.+.$.$.",
"! 2 6 ~ ( ( ;.@.6 6 ( b } $.$.l.z.o.4 Y z.&.O. .E - n l.l.l.l.;.$.$.I < / ;.>.`.$.w < $.}.l.-.-.( ~ ",
"( T $ 1 ; 6 6 1 * ( @.( $.l.z.&.o.l.L < 0 9 0 9 * < o.l.z.@.o.@.-.o./ 2 2 7 w 9 5 % Y $.~ o.`.z.$.( "
};
