/* XPM */
static char *C_collectible2[] = {
/* columns rows colors chars-per-pixel */
"50 50 183 2 ",
"   c #0E0C05",
".  c #191409",
"X  c #1D180A",
"o  c #141513",
"O  c #161817",
"+  c #181917",
"@  c #1C1D1B",
"#  c #211B0B",
"$  c #1F201E",
"%  c #2A220E",
"&  c #21221F",
"*  c #352B12",
"=  c #1F2121",
"-  c #232523",
";  c #272826",
":  c #2A2B26",
">  c #272B29",
",  c #2B2D2B",
"<  c #312E24",
"1  c #2E302E",
"2  c #373429",
"3  c #30322F",
"4  c #2F3230",
"5  c #323532",
"6  c #363936",
"7  c #3A3B35",
"8  c #373A38",
"9  c #3A3D39",
"0  c #473A18",
"q  c #443C24",
"w  c #3E413D",
"e  c #4F401B",
"r  c #59481E",
"t  c #6D4E06",
"y  c #785607",
"u  c #644C14",
"i  c #6C5316",
"p  c #795D18",
"a  c #4B4228",
"s  c #584C2B",
"d  c #41433F",
"f  c #4A483A",
"g  c #5A523C",
"h  c #6A5523",
"j  c #755F24",
"k  c #655732",
"l  c #695D3B",
"z  c #7D6424",
"x  c #7C642A",
"c  c #766334",
"v  c #7C6A3A",
"b  c #3E4240",
"n  c #434642",
"m  c #464945",
"M  c #484C46",
"N  c #4A4E4A",
"B  c #4B5046",
"V  c #4D514C",
"C  c #50544E",
"Z  c #585648",
"A  c #525651",
"S  c #565A54",
"D  c #595D56",
"F  c #5A5E59",
"G  c #625D49",
"H  c #5B6057",
"J  c #5D625C",
"K  c #6F6849",
"L  c #7C6E43",
"P  c #746B49",
"I  c #7D714C",
"U  c #61665F",
"Y  c #6A6A5B",
"T  c #726C51",
"R  c #79745B",
"E  c #7B755C",
"W  c #5E6460",
"Q  c #626760",
"!  c #656A63",
"~  c #686D67",
"^  c #6A6F69",
"/  c #6D726C",
"(  c #747363",
")  c #7D7961",
"_  c #70756E",
"`  c #76786D",
"'  c #7D7D6F",
"]  c #6F7670",
"[  c #727771",
"{  c #757A74",
"}  c #787D77",
"|  c #777D78",
" . c #797E78",
".. c #865D01",
"X. c #825E09",
"o. c #876006",
"O. c #8A6205",
"+. c #85610B",
"@. c #906709",
"#. c #936A0B",
"$. c #846519",
"%. c #9D7312",
"&. c #A57A18",
"*. c #846A29",
"=. c #826F3C",
"-. c #8F7330",
";. c #89733A",
":. c #977A33",
">. c #837344",
",. c #82774D",
"<. c #877849",
"1. c #867B55",
"2. c #837A5B",
"3. c #817B60",
"4. c #7C8176",
"5. c #7D827C",
"6. c #AE821E",
"7. c #B58923",
"8. c #BE9129",
"9. c #A98839",
"0. c #B28F3E",
"q. c #B9953E",
"w. c #C5972E",
"e. c #CA9B31",
"r. c #D4A438",
"t. c #DAAB3D",
"y. c #AD8D43",
"u. c #BB9845",
"i. c #A4935F",
"p. c #868064",
"a. c #898266",
"s. c #988D67",
"d. c #9F936B",
"f. c #8D8A74",
"g. c #858779",
"h. c #81857E",
"j. c #918C72",
"k. c #989377",
"l. c #979379",
"z. c #AB9863",
"x. c #A4966B",
"c. c #B09F6D",
"v. c #A19772",
"b. c #A89C73",
"n. c #B0A072",
"m. c #C39D42",
"M. c #C6A043",
"N. c #CCA447",
"B. c #D0A846",
"V. c #D4AB4B",
"C. c #DCB04B",
"Z. c #DBB55A",
"A. c #DEB658",
"S. c #E4B343",
"D. c #E4B64C",
"F. c #E6B84E",
"G. c #ECBB4B",
"H. c #F0BF4C",
"J. c #ECBF53",
"K. c #E6BC5A",
"L. c #C2A662",
"P. c #CBAE63",
"I. c #CDB168",
"U. c #D4B362",
"Y. c #DEBA63",
"T. c #F5C24E",
"R. c #EFC156",
"E. c #EBC15C",
"W. c #F5C554",
"Q. c #F9C753",
"!. c #FFCC55",
"~. c #F5C658",
"^. c #FBC958",
"/. c #E7C061",
"(. c #818780",
"). c #848A83",
"_. c #888E86",
"`. c #878F88",
"'. c #898F88",
"]. c #889086",
"[. c #8C938A",
"{. c #929687",
"}. c #949B93",
/* pixels */
"/ M - A F F N n = A 5.(.| (.| ^ / [ 5 5 F F F W b = V Q ^ ^ U ! [ [ Q = n N 2 9 C 5 w 5.! ! {  .5.{ ",
"J - M _.(.(.} } q 1 { (.5.(.{ { | S @ ~ h.| ).).W ; 5 F U Q ! _  .(.b , } ~ M J | J - U { { { [ 5. .",
"9 - | (.} (.} (._ - V  . .{ 5.(.^ - > Q ! ] | ] Q N @ A ~ ~ [  .(.Q @ D } F S ! }  .9 , Q / [ { { ^ ",
"O A 5.(.(. . .).{ n - F ^ ] | | N = W ^ / ~ { | [ / 8 5 _ [ [ } [ > 5 ^ ^ ~ ! ! { [ V - A / Q { [ S ",
"1 { 5.(.).3.(.{ _ F , - ; , , 5 @ m 3.| { / | (.} / A $ , 4 4 4 : @ F Q _  .[ [ Q / / w - 5 > - , - ",
", / (.| ^ ^ | ] ^ D - 9 A A n 9 - 9 / 5.| ~ ] n.L._ m @ n q 8 4 7 @ N | { } h.(.5.5.} 6 : M w 9 m n ",
"; m | [ ~ Q | | [ 6 , h.'.'. .{ A = J h.{ W / L.K.( - b ] ~ ^ ^ ~ 5 , [  . .(._.)._.J - ! 5.).).} } ",
"n = W ] ^ Q | 5.U - _ h.F ~ (.[ ~ 5 1 Q ! / ] I.J.M ; { / W ^ | } F ; n ^ [ } _.5.} 1 n [ J  .4.[  .",
"F 5 1 F ! [ { ^ , q }.W W ! } | { W - w ! } 4.U.V.- F ).[ Q ! [ { } N - J ^ { }  .N - [ { b W | { / ",
"Q m o = ; 1 4 ; = ^ (.{ ] ] A J [ 5.m @ , 1 7 V.0., [ ^ / ^ ~ [ } [ _ , ; 5 1 , 4 $ V | W N ^ 3.5.{ ",
"N 8 @ m N V N n : 3.[.[.`.| F ! 5.5.7 : V V Z A.y.; ~ ~ } 5.} { [ / ! ; 9 N V m V 1 m / m !  .h.{  .",
"n + 9 | (.h.(.{ M N./.l.5.{ ] /  .F $ J  ./ ! a.( ; n  . .{ 5.5.! ~ b > x.I._.h. .A - F ] h. .^ [ ^ ",
"6 $ C U } [ } [ F k C.K.f.} 5.| U - n [ { J C J [ S - J 5.[ ] / ! D & >.~.U.g.). .^ 4 5  . .Q ^ /  .",
"@ A [ F h.).h.[  .N s F.J.x.] / n -  .5.4.R T K ) ( : 5 (.4.D N U 5 x W.Y.j.(.). . .Q - S ^ ! [ 5./ ",
"5 }  .} ).h.5.} 5.[ , q u.y.< 4 @ N p.=.$.+.+...+.+.t 0 7 4 > & = a J.U.f.| / / {  .[ 9 & 4 5 1 5 - ",
", [ (.(.h.h.} ! ^ ! ; 8 Z D n q 2 i +...............o...t s V V M : I g.! M S / 5.5.[ , ; N N V N n ",
"- V 5.5.5.(.5.~ J 3 1 [ ~ J ] R p ......O.%.6.7.6.%.O.o.o.+.>.{ [ 9 = F F N F } h.} F = F } h._.h.| ",
"S - J 4.5.].`.(.d + ! ].~ D Y $.....O.&.t.Q.!.!.!.T.S.7.O...o.c ! W = 5 Q ~ !  .h./ , b  .[ ! } h.[.",
"] 5 5 ] ).5.(.{ & 9 ].).5.` z ....O.e.Q.!.!.!.!.!.!.!.!.r.#.o.+.3.5.N @ S / Q ^ / m -  .(. ._ [ { 5.",
"5.J - 1 5 1 5 1 + A { { [ P o...O.e.!.!.!.!.!.!.!.!.!.!.!.t.@...*.3.[ ; - , ; ; ; O V }._.h.[ ! / 4.",
"`.S - n V A D V - S { / Y p ..o.7.Q.!.!.m.*.h h -.B.Q.!.!.!.w...X.P W - 8 n q b m , b '.'.(. .[ [ 5.",
"J - M 5.(.).[.| 6 > [ | T +...O.S.!.!.q.X % e 0 % # -.!.!.!.G.%...j 5 ,  .{ ! W [ F - W [ ^ [ } (.4.",
"6 & J _ v.b.b.v.1.q V { v o.o.&.Q.!.F.* r F.!.Q.F.:.9.Q.!.!.!.7...y & W | W W J / h.9 4 ~ / ^ ^ { (.",
"@ N ~ ~ Z.Q.W.^.^.y.; / =.....8.!.!.M.X m.!.!.!.!.!.!.!.!.!.!.r...X.q b.z.s.i.c.n.l.Q - M ^ [ ! / ~ ",
"7 } [ / ) 1.I 1.s.( = > u O.o.w.!.!.M.# B.!.!.!.!.!.!.!.!.Q.!.t...X.T I.^.~.J.^.W.c.} n $ > 1 > , > ",
"3 ! _ 5._ F D W ] J $ 5 h o.o.e.!.!.M.# B.!.!.!.!.!.!.Q.!.!.!.t...X.G 3.f.l.l.f.k.g.[ 6 , V N m N b ",
"; 9 / _ / J J ~ 4.w > ^ v O.o.7.!.!.M.X m.!.!.!.!.!.!.!.!.!.!.e...y 5 [ ).5.5.5.} h.F @ S / [ 4.5.{ ",
"C - J / / J J Q V $ m J P o.y %.W.!.R.* i Q.!.!.!.C.D.!.!.!.!.6...p , C (.5.(.(.3.{ , n { ! Q 5.).).",
"[ 6 9 ] { / D J = > J ! R p o.o.r.!.!.-.  x R.!.T.e x !.Q.!.S.@...L V , ~ | 5.5.| N = { h.{ ~ {  .5.",
"{ A - 4 1 1 > - $ B H J ~ v o.o.%.T.!.W.x . % r 0 . 0.!.!.Q.6...*.3.[ 1 = > 4 4 4 @ N 5.{ { / ! [ 5.",
"[ N $ n B M M n $ C W H J ( $.o.O.6.T.!.!.q.x s u :.T.!.Q.8.O.o.,.[ W = 5 m b N V 4 4 ~ { / [ _ { [ ",
"D - m ] { h.5.[ w > ^ ^ ! ~ K +.O.y 6.S.!.!.!.!.!.!.!.G.7.O...;._.{ 4 1 { 5. .5.(.A = S ).).).}.`./ ",
"5 - ^ ^ [ [ Q [ ! > C | } ' U l X.....#.7.t.G.G.G.t.w.#.....*.' (.S @ F 5.h.| [ [ [ 9 4 } } [ '.h./ ",
"O D (. .5.[ ! ^ / A > 3.U.c.H M a t ......o.#.#.@.O...O.X.v _ _ { g f Q Q 5.} ~ ~ { ~ = m ~ J / | F ",
"4 (.} (.(.5.{ Q Q / G C.D.c < ; + f L $.o...........+.u q 1 5 1 7 N.Z.3.^ 5.[ } } | | 9 @ , ; , 1 - ",
", ^ h. .(.(.| 5.} s.J.E.2.N m d - 6 ^ ` 3.L =.>.<.P g - V N n N m k C.K.j. . .'.[.).} 5 ; m N d n n ",
"- m 3.(.`.`.).`.k.J.A.{.} / 3.5.N + n /  .[ 5.'.`.W - N  ./  .(.{ q s J.P.3.).).`.[.F = Q h.h.[ / { ",
"N ; F ^ ^ ] (. .L.C.3.h.[ ~ W ~ A 1 1 ~ | [ { j.5.w ; { ^ ! { (.(.] ; >.^.v. .).)./ > 8  .} h.[ U | ",
"^ 5 4 W ~ ^ ] W q G ).'.5.W W { [ Q ; m F F 2.K.E - Q (.^ /  . .| | b ; u.d./ ^ F 8 = ^ (.3.W Q ~ 4.",
"U S - 1 4 4 , ; + ^ [.`.| ^ 5.| / / b @ - - k H.s , 5.5.! / } (.5.5.^ - ; , ; , ; O N `.{ C N ^ { | ",
"^ N - M A N M n $ Z `.[. .{ ).} } { 5 , M m I W.l > ~ ~ ! { 5.5.5.(.! - 1 9 d d q , N { W ] ! A D ! ",
"F - n 5.(.(.(. .5 4 ] `.(.(.(.[ } F @ Q | ^ s.~.s., n F J [ 5.h.). .9 5 / ~  .(.5.S = A / | [ F H J ",
"6 - ! _ [  .(.^ V > N ^ [  .(. .[ ; 9 / / [ v.^.b.S - M ! ^ 5.h.(.Q = F 5.[ [ 5.(.| 9 4 { (. . .{ _ ",
"o n ! J Q  .} [ ! q @ N F [ } | M $ Q ^ Q [ v.~.b.| 6 1 ! J / { Q : 7 5.5.[ ~ [ | (.~ > S [ { { / D ",
"- J S J ! } { { [ ~ ; - , 1 4 1 @ N h./ !  ._.x.f.`.~ $ , , 4 4 ; + Q h.5.} _ [ (. .h.9 $ ; , 4 > $ ",
": A M J _  . .{ [ S = 9 C n N m > n }  .5. .} [  .h.F $ n M N n 8 - N /  .5._.).(. .D = > N m N V d ",
"; n Q J [  .(.(.[ 5 ; } ).} ).).A @ F (.(. .^ |  .^ ; n  . .).{ A 9 1 / } (.].h.} [ 5 O ~ ). .{ { / ",
"n ; B A Q [  .(.F @ N ! { ^ } (.[ 5 6 {  . .{ [ { b $ | 5.4.).(.Q Q > N 5.(.).h.h.D O n `.(.^ ! / / ",
"A : 1 S H J { / 1 5 H m J / / 4.4.! > M { [ / [ S @ n 5.(. .{ { ^ / m - F [  .)./ 9 - _ }.} [ [ J D ",
"J B + - - 1 1 - + W / H / 4.5./ ! | m = 8 8 5 5 = = ! { 5./ ! / { Q J - - 5 6 5 > @ N / D ! 5.5./ J "
};
