/* XPM */
static char *C_collectible2[] = {
/* columns rows colors chars-per-pixel */
"50 50 158 2 ",
"   c #0E0C05",
".  c #141107",
"X  c #161208",
"o  c #1D170A",
"O  c #1D180A",
"+  c #141513",
"@  c #181917",
"#  c #1C1D1B",
"$  c #211B0B",
"%  c #1F201E",
"&  c #2A220E",
"*  c #21221F",
"=  c #342A12",
"-  c #392E13",
";  c #232523",
":  c #272826",
">  c #292B27",
",  c #2B2D2B",
"<  c #2E302E",
"1  c #343124",
"2  c #30322F",
"3  c #3A382E",
"4  c #2F3230",
"5  c #323532",
"6  c #363936",
"7  c #393B37",
"8  c #3A3D39",
"9  c #473712",
"0  c #473A18",
"q  c #3E413D",
"w  c #4F401B",
"e  c #55441D",
"r  c #5B491F",
"t  c #6D4E06",
"y  c #785607",
"u  c #644C14",
"i  c #6E5210",
"p  c #6A531C",
"a  c #7A5D15",
"s  c #765C1D",
"d  c #4B4226",
"f  c #564B2C",
"g  c #484436",
"h  c #41433F",
"j  c #645122",
"k  c #6B5624",
"l  c #6F5A25",
"z  c #755F24",
"x  c #7D6424",
"c  c #7C642A",
"v  c #6B603A",
"b  c #746538",
"n  c #7C6A3A",
"m  c #434542",
"M  c #464945",
"N  c #484C47",
"B  c #4B4E4A",
"V  c #4B5046",
"C  c #4D514C",
"Z  c #50544F",
"A  c #525651",
"S  c #565A54",
"D  c #595D57",
"F  c #5A5E59",
"G  c #605D4B",
"H  c #5B6057",
"J  c #5D625C",
"K  c #6E6849",
"L  c #736742",
"P  c #7C6E43",
"I  c #746B4B",
"U  c #696752",
"Y  c #61655F",
"T  c #686959",
"R  c #736D51",
"E  c #75725B",
"W  c #7F785A",
"Q  c #626660",
"!  c #656A63",
"~  c #686D67",
"^  c #6A6F69",
"/  c #6D726C",
"(  c #727262",
")  c #7F7A60",
"_  c #70756F",
"`  c #76786D",
"'  c #727770",
"]  c #757A74",
"[  c #787D77",
"{  c #7A7F78",
"}  c #865D01",
"|  c #835E09",
" . c #876006",
".. c #8A6205",
"X. c #85610B",
"o. c #8C650A",
"O. c #906709",
"+. c #936A0B",
"@. c #846519",
"#. c #9D7312",
"$. c #A77C19",
"%. c #A97E1A",
"&. c #856924",
"*. c #806728",
"=. c #886E2E",
"-. c #826F3C",
";. c #8F7330",
":. c #847038",
">. c #8A7339",
",. c #9A7C34",
"<. c #847443",
"1. c #877849",
"2. c #817B60",
"3. c #7C8176",
"4. c #7D827C",
"5. c #AE821E",
"6. c #B28621",
"7. c #B58923",
"8. c #B88C25",
"9. c #BE9129",
"0. c #A58437",
"q. c #AD8B3A",
"w. c #B5923D",
"e. c #BD973F",
"r. c #C4962D",
"t. c #C5982F",
"y. c #C79A30",
"u. c #CA9B31",
"i. c #D1A236",
"p. c #D5A639",
"a. c #DAAB3D",
"s. c #BD9940",
"d. c #868166",
"f. c #828376",
"g. c #80857F",
"h. c #82897F",
"j. c #C39D42",
"k. c #C6A043",
"l. c #CBA344",
"z. c #D0A646",
"x. c #D0A846",
"c. c #DBAF49",
"v. c #E4B343",
"b. c #E2B54C",
"n. c #E6B84D",
"m. c #ECBB4B",
"M. c #F5C24E",
"N. c #F5C452",
"B. c #F9C752",
"V. c #FFCC55",
"C. c #828780",
"Z. c #848A83",
"A. c #888D86",
"S. c #898F88",
"D. c #899086",
"F. c #8C938A",
"G. c #91978F",
"H. c #949B93",
/* pixels */
"/ N ; S F S C m % C 4.g.4.g.[ ^ / ' 4 5 J D J J m % A Q ^ ^ J ! / ' Q % m C 5 q C 4 q g.! ! ] 3.4.[ ",
"J ; M A.C.C.{ ] q < ' g.g.g.] { { S % ~ g.{ Z.g.Q : 4 F Y Q ! _ 4.Z.q , { ! V J 3.J ; J ] ] ' ' 4.[ ",
"8 ; [ C.{ Z.{ C./ : B 4.{ ] 4.g.^ : : Q ! _ ] ] Q B % A ^ ! ' g.C.Q % A ] F D ! [ [ 8 4 Q _ / [ ' ^ ",
"@ A 4.C.Z.2.{ C.] h ; J ^ / ] { B ; J ^ / ~ ] ] / / 5 5 ' ' ' ] _ < 4 ^ / ~ Q Q ] ' Z % Z / ! ] ' D ",
", [ 4.Z.Z.g.{ ' / J : ; : 4 < 4 @ B 4.] ' ^ [ g.3./ Z % , 4 , , , # F ! / 4.' _ Q / ^ q * 4 ; ; < ; ",
", ^ C.{ ^ ^ [ _ / F ; 8 Z Z q 8 ; 8 / 4.{ ~ / g.[ / m % m q 8 4 6 # B ] ] [ g.C.g.4.[ 6 , C q q m m ",
": M { ' ! ! [ { ' 6 , 4.F.A.4.[ C % J g.] J / g.g.! : q ' ! ^ / ! 6 < ' 4.4.g.S.Z.A.J ; Q g.Z.Z.[ [ ",
"m % F ' ^ ! ' g.Q * ' C.J ! g._ ~ 5 < Q ! / ] 4.{ m : ] / Q ! 3.[ F ; m ! _ [ S.4.[ , m ' J [ 4._ 4.",
"J 5 4 F ! ' ] / , q H.D J ~ [ [ ' Q ; q ! ] [ ] S % F Z.' J ! ' ] [ C ; J / ' [ [ C ; ' [ m Q ' ] / ",
"! m + % ; 4 4 : % / g.' ' _ A J ' 4.m % < 4 4 4 ; , ' ^ / ^ ^ ' 3._ / , : 4 4 4 4 % C 3.J M ! 4.4.' ",
"B 6 # M B C B m : J Z.G.Z.[ F ! 4.4.8 : C C V M 6 , ! ! [ 4.[ [ _ _ ! * 8 C B M C , N ^ N ! { 4.] 4.",
"m @ 8 { Z.g.g.{ 8 : ! 4.g.] _ / { J # J 4./ ! ^ ! , M 4.4.] 4.4.! ^ q , ] 4.g.g.4.A * J ' 4.{ ^ / ^ ",
"6 % Z J { ] ] ' F ; 8 Q ] { 4.[ Q ; h ' ] J C J ' S ; J 4.' _ / ! F % N Q / 4.Z.[ ! 4 4 { { Q / _ [ ",
"# A ' J 4.Z.g.] [ B ; F ' ^ _ ^ m ; [ 4.3.E R I ) ( > < g.3.D N J 4 8 Q ] 4.g.Z.[ 4.Q , A / ! ' 4./ ",
"4 ] { ] Z.Z.4.] 4.' < : 4 : : , # B d.:.@.X.|  .X.X.i 9 7 4 , % % % _ g.g.] _ _ ' 4._ 8 % 4 4 < 4 ; ",
"4 _ C.C.g.4.{ ! ^ Q : 6 B B m q 1 p X.} } } } } }  . . .t f C C B ; F 3.! N A ^ 4.4._ < : C B Z C m ",
"; C 4.4.4.g.4.~ F 5 , ' / J / E a } } } ..#.5.6.5.#... .} o.<.] ' 8 ; F F N H ] g.{ S % F ] 4.Z.g.4.",
"A : H 3.C.D.D.C.m # ! A./ H T @...} ..%.a.N.V.V.V.N.v.7...}  .b ! ! ; 4 Q ~ ! { 4.' : m { _ ! 4.g.F.",
"' 4 4 ' C.4.g.] % 8 D.A.3.` x } } ..y.B.V.V.V.V.V.V.V.V.p.+.} X.2.2.B # D ' Q ^ / M : 4.C.4./ ] ] 4.",
"C.J ; 4 5 < 5 4 @ A ] ] ' L  .} ..u.V.V.V.V.V.V.V.V.V.V.V.a.O.} &.{ ' ; ; : : : : @ C G.A.4.] ! ~ 4.",
"D.S % M C A F C ; A ' / T s  .} 6.B.V.V.j.=.k l ;.z.B.V.V.V.r.} } I J ; 6 m 8 h M < m S.F.g.{ ] ' 4.",
"J ; N g.g.A.F.[ 7 < ] ] K  . .O.v.V.V.w.o & w 0 & $ ;.V.V.V.m.#.} z 6 , { [ Q Q _ F ; J ' ^ _ ] C.4.",
"4 ; J _ g.4.g.4.J : C ] P  .} $.B.V.n.- e n.V.N.n.,.0.V.B.V.V.8.} y ; J [ Q J J _ g.8 4 ! / / ^ ] C.",
"% C ! Y / / _ ] 4.B : / n } } 9.V.V.l.o j.V.V.V.V.V.V.V.V.V.V.i.} y g 4./ ! ' ' { g.Q ; B ^ _ ! / ! ",
"6 { ] ^ ~ H A J ] ! ; : u X.} t.V.V.k.$ x.V.V.V.V.V.B.V.V.V.V.a.} | U [ [ { Z.[ { [ [ m # , < , < ; ",
"4 Q _ 4._ H H Q _ J % 5 l  . .t.V.V.k.O x.V.B.V.V.V.V.V.V.V.V.a...y G 4.{ { C.[ g.{ _ 6 , C B M C m ",
": 8 / _ / Q J ! 3.q , ~ n  .} 7.V.V.k.o s.V.V.V.V.V.V.V.V.V.V.u.} y 3 ' Z.f.4.4.[ g.F # A / ' 4.4.] ",
"A : J ^ / J H Q C % m J K  .} #.B.V.M.- j B.V.V.V.c.b.V.V.V.B.5.} s , A g.g.C.C.g.] < m ] ! Q 4.Z.Z.",
"' 6 8 ' ] / H J : : J ! ( @.}  .p.V.V.;.  c m.V.N.w c V.V.V.v.O.} P C , ~ [ 4.4.' B ; ' C.] ^ ] [ 4.",
"] S * 4 < , > ; % N H J ! n  .} #.N.V.N.c X = r 0 . q.V.V.B.5.} @.3.' , % , 4 4 4 @ M g.] ] / Q _ 4.",
"' B % m N N N m ; Z Q H J ( @. ...6.N.V.V.e.x f j ,.N.V.B.9.} ..W / Q % 6 m q B C < < ~ ] / ' ' [ _ ",
"F * m / [ g.4.] 7 : / ^ ! ! K X. .y 5.v.V.V.V.V.V.V.V.m.7...} >.A.] 4 < ] 4.{ 4.C.S % S Z.Z.Z.H.Z./ ",
"4 * / / ' _ Q ] ! : A { ] ' Q v a .. .O.7.a.m.M.m.a.9.+.} } *.[ h.D # F C.2.g.' ] ' q 4 ' ' ] S.C.^ ",
"# S g.4.g.' Q ^ ' A , Q ' / F M d t  . . ...O.+.O... ...} n ` / ] 2 5 ! Q 4.[ ~ ~ ] ~ % B ~ J / ] H ",
"4 4.] g.g.4.] Q Q _ < : < < , : @ q n s  . . ... . .X.u 3 2 4 4 > # ! ^ ^ { ' { [ { [ 8 @ 4 : , 4 ; ",
"< / g.{ Z.g.{ 4.[ J ; q C M M m ; q ^ 3.W P n -.1.E f * B B M C M ; D ] { 4.{ Z.F.Z.[ 5 : M M m m m ",
": m 4.4.S.Z.Z.S.] 6 , 4.{ / 4.{ B @ m / { ' 4.S.D.J ; B 4./ [ g.] m < _ { ' C.A.S.S.F % ! g.4.' / [ ",
"B : F ~ ~ ' g.4.S % J g.] ~ J ! Z 4 4 ! 4.' ] 4.4.q : ] ^ ! [ g.g.^ : M { { 4.C.Z.' : 8 { [ g.' J [ ",
"/ 5 4 Y ~ / ] J : 8 Z.A.4.J J ] ' Q : M F F F ! J % Q C.^ ^ 4.3.] { 8 ; Y ] ' ^ J 5 % ^ 4.4.Q Q ~ 4.",
"J S ; < 4 , , ; @ ^ F.A.4.~ 4.4./ / q # ; ; : , ; < 4.4.! / ] g.g.{ ^ : % > > > : @ B S.' C B ^ ] ] ",
"~ C ; M A C N m # C D.F.{ [ A.' 4.' 5 , M M M B 6 , ~ ^ ! ] g.4.4.g.! ; 4 8 h h q : m { J ' ! A H ! ",
"J ; m g.g.g.g.[ 4 , ] D.C.C.A./ { S % Q { ^ ^ g.4., m H J ' { g.Z.4.8 4 _ ! [ g.4.S : A / { ' F H J ",
"4 * ! _ _ 4.g./ C : M ! ' { C.{ _ : 6 ^ _ ' { 4.Z.A ; B ! ^ 4.g.g.Y % F g._ ] 4.g.{ 8 4 ] g.4.[ [ ' ",
"+ m ! J Y [ [ ' ! q # V F _ [ { B % Q ^ Q ' g.] 4.4.5 4 ! J / ] ! : 6 g.4._ ^ _ { 4.! : D ' ] ] ^ S ",
", J S J ! { ] ' ' ! ; ; , , 5 , # B g.^ ! { Z.] 4.Z.! % , , 4 4 : # J g.4.[ _ _ g.4.g.8 % : < < , # ",
": A N J / { 4.] _ D % 8 B M B B , m 4.4.4.{ ] ] 4.4.J % m M B m 6 ; B _ [ 4.A.A.g.[ D ; : B M B C m ",
"; m Q H ' 4.g.C.[ 5 : [ C.[ C.A.A # F C.C.4./ ] 4.^ : m { 4.Z.] Z 8 < / [ g.D.g.[ ] 4 + ~ A.{ ' ] / ",
"M : V S Q / { C.F # C Q [ / [ C.' 5 5 ] { { ] ' ' m % ] 4.{ Z.C.Q Q : C 4.C.Z.g.g.S @ m S.g.^ ! / / ",
"Z : , A H J 3.^ , 5 J M J / _ 3.3.! : M ] ' / ' S # m g.C.4.] ] ^ _ m % J ' 4.C._ 8 % _ H.3.' ' J S ",
"J B % : ; , < ; @ Q ^ J ^ 3.3._ ! 3.m ; 8 6 5 4 % ; ! ] g.^ Q ^ ' Q J : : 4 6 4 , % B ^ H Q g.4./ J "
};
