/* XPM */
static char *C_collectible[] = {
/* columns rows colors chars-per-pixel */
"50 50 128 2 ",
"   c #141513",
".  c #181917",
"X  c #1C1D1B",
"o  c #201F18",
"O  c #1F201E",
"+  c #20221F",
"@  c #1F2120",
"#  c #232523",
"$  c #272826",
"%  c #282A27",
"&  c #2B2D2A",
"*  c #2E312E",
"=  c #373221",
"-  c #3F3824",
";  c #30322F",
":  c #38372D",
">  c #323532",
",  c #373936",
"<  c #383B37",
"1  c #3A3D39",
"2  c #3E413D",
"3  c #5A440F",
"4  c #684B07",
"5  c #7F5903",
"6  c #78580D",
"7  c #7F6016",
"8  c #7C611C",
"9  c #5E4B20",
"0  c #51482D",
"q  c #40433F",
"w  c #5A5238",
"e  c #665122",
"r  c #6A5423",
"t  c #6F5825",
"y  c #6D5F34",
"u  c #756026",
"i  c #7A6225",
"p  c #736334",
"a  c #7B6937",
"s  c #424542",
"d  c #464945",
"f  c #484C47",
"g  c #4B4E4A",
"h  c #4B5046",
"j  c #4D514C",
"k  c #50544F",
"l  c #525651",
"z  c #565A54",
"x  c #595D57",
"c  c #5A5E59",
"v  c #5B6057",
"b  c #5D625C",
"n  c #706643",
"m  c #756941",
"M  c #7A6D46",
"N  c #746B4A",
"B  c #7E724C",
"V  c #61655F",
"C  c #6A6C5F",
"Z  c #72705E",
"A  c #626760",
"S  c #656A63",
"D  c #686D67",
"F  c #6A6F68",
"G  c #6D726C",
"H  c #7C7964",
"J  c #70756F",
"K  c #777A6E",
"L  c #7F7E6B",
"P  c #727770",
"I  c #757A74",
"U  c #787D77",
"Y  c #7A7E78",
"T  c #855E03",
"R  c #866006",
"E  c #8B6205",
"W  c #82600E",
"Q  c #8A6308",
"!  c #956B0D",
"~  c #996F0E",
"^  c #866517",
"/  c #8A6510",
"(  c #9D7210",
")  c #A27613",
"_  c #A87C17",
"`  c #A97D18",
"'  c #856822",
"]  c #856B2E",
"[  c #927431",
"{  c #9A7A33",
"}  c #837752",
"|  c #847A58",
" . c #798077",
".. c #7D827C",
"X. c #AE821C",
"o. c #B0831C",
"O. c #BA8C24",
"+. c #A98738",
"@. c #B08C3B",
"#. c #BD973F",
"$. c #C2942B",
"%. c #CB9C31",
"&. c #DDAC3D",
"*. c #84816B",
"=. c #80857F",
"-. c #82897F",
";. c #D2A746",
":. c #D2A847",
">. c #D7AC49",
",. c #DAAE49",
"<. c #DEB24B",
"1. c #E4B342",
"2. c #E8B645",
"3. c #E4B64C",
"4. c #EDBC4D",
"5. c #F1BF4B",
"6. c #F5C24E",
"7. c #F5C452",
"8. c #F8C653",
"9. c #FFCD56",
"0. c #818780",
"q. c #848A83",
"w. c #888E86",
"e. c #898F88",
"r. c #899086",
"t. c #8C938A",
"y. c #90968F",
"u. c #949B93",
/* pixels */
"G f # z c x g s @ j Y 0.Y 0.U F F P > > c c b b q @ j A F F b A J P A @ s g , , k > 2 ..S S I Y ..U ",
"b # f q.0.0.U U 2 * I 0.=.0.I Y Y c @ S 0.Y q.0.A $ > c A A D P ..0.2 & U D h b U v # A I U I J ..U ",
"1 # U 0.U 0.U 0.F $ g Y Y I | 0.G $ $ A S J I P A g @ j F D P ..0.A X z U c z S U Y 1 & A G G U I G ",
"  z ..0.0.Y Y q.U s # b D J ..Y g @ b F G F P U J G , > J P P I J & > F F F S A U P j # l G A P P l ",
"& U Y 0.q...Y I G c & # % & & ; . g ..I J F U 0.U G k @ & * & & & X c A P Y I J A G F 1 # > % # & # ",
"& G 0.U F F I P F x # 1 l k s 1 # , G ..Y S F 0.I G d @ q q < > , X g U U I ..q.....U , % g 2 1 d s ",
"$ d Y I F A U Y I , & =.t.w...U l @ c 0.U b G 0.0.F $ q J D F G S , % U Y Y 0.e.q.w.b # S ..q.q.U U ",
"s @ c P F A U ..V + J -.b S ..J F > * A S G P 0.U s @ I G V D Y Y c # 2 F P I w...U & d I b U ..P Y ",
"c > * c S P I F & 2 u.x b D Y U I V @ 2 S Y  .P z @ c q.P b A P U U j # b F I U Y j # P U d A P U G ",
"S d   @ $ * ; $ @ G =.I P P l b P ..d @ & * > * @ & P F G G F P Y P G & # > ; & * O j U b d S ....P ",
"j , X d g j g d # V q.y.q.Y c S ....< % j j g d < % D S U ..Y I J G S # 1 g g f j & d G d S Y =.U Y ",
"s . 1 U 0.=.=.I 1 $ D Y ..U P F Y c @ c Y J S F D & d Y ..I ....S F 2 & U ..0.0.Y z # c J ..Y F G F ",
", X k V I I I I x # 1 A U Y =.U V $ q P U b j b P z @ b ..P J G S c # d S G ..q.Y F * > Y Y A F G Y ",
"X z J b =.0.=.I I g # c P F P F d @ Y ..0.P J F ..J & > 0.Y z g b ; , A I Y 0.q.Y Y A # z F S P ..G ",
"> I Y U q.-.Y I =.P & $ * $ # & @ g 0.Y .. ...Y 0.D d X > ; & @ # X J ....U P G U Y P 1 @ * > * ; $ ",
"& P 0.0.=.=.Y S F S # 1 g f d 1 $ s F J I .. .Y I S 2 @ j l j j g # x ..S f l G Y ..P & $ j g k k q ",
"% j ..........F x > & P G b J P l @ V 0...=.....G s O j t.r.w.I P 1 # c c f c U =.U x @ c U ..q.=.Y ",
"l % v  .q.r.r.=.s X S w.G x F ..Y q > D G ..0...G * $ ..q.t.r.F A A @ * S F S Y ..P & 2 Y P S Y =.t.",
"G > ; P q...0.I + < w.q. .I J I w.P # d G I ..G d . l q.q...b I ....g X z P A F F d $ Y q.Y J U I ..",
"0.b O * > * , & . l I U J F G P ..I 1 @ * > > * O $ I -.t.I S  .=...J $ # % # $ $ X j y.w...P A G  .",
"w.z # d j l z j $ l I G A G I Y Y A * @ 2 2 g d > % F =.Y ..F S G F b # 1 s 1 2 f & s e.t.=...P P ..",
"v # f =.0.w.t.Y , & J U G P F A c s X l b S I ..G % d ..=.=.S k b V * & Y I A A P c # b P F P P =...",
"> @ c J =...=...b % j U U A S G g O * b b F  . .I g @ V J Y F A G z X A U A A c P =.1 * D F F F I =.",
"X g F A J G G I ..g $ F ..A c U g @ l v J J G  ...J % * b G G S S * , ..G S P I Y 0.A # f F P D G F ",
"1 Y P F F c l b U S # % > & % & X l U S U P A ..Y Y g . % & & $ $ X z Y Y Y q.I Y Y Y s @ % * % & % ",
"> A P ..P c x V P A O > k j g g & d P S U G P P I P s X g d 1 g 1 X j ..Y Y 0.U ..Y J , & j g d g q ",
"# 1 G J G V b F U 1 & S U 0.0.0.V # b ..Y U .... .b X d 0.x S Y G < & P q.......Y =.c X z J I  ...I ",
"k # b G G b v V j X d V G 0.Y ..Y 2 , ..Y P U q.=.s # I S > b P D c % l 0...0.0.=.P & s I S V ..q.q.",
"G , 1 P P G v b # & b A P Y U U Y P & z J b v G S # f D I v G ..I F g & F Y ....P g @ P =.I F I Y =.",
"U z # ; * * % # X f x b D U 0.Y 0...d # * % # % O * ..J  .I G ..q.Y P & @ $ * > > . g 0.I I J V J Y ",
"P g # q j d f s # l A c V P Y ....J % # 2 g g d = - L  .I I I q.q.J A @ , s 2 g j & & F I G P P U J ",
"z # s G I =...I 1 % F F S A S J P 1   l J G M ' 5 5 7 8 n I 0.q.w.P > & I ..Y =.0.l @ c q.q.q.u.w.F ",
"> # F F I P A I A $ l U I I A A k X , U K u T ~ O.%.$.) R a G U 0.z X c ....Y P I P 2 * I P I e.=.F ",
"X z 0.Y Y I S F P l & A P F x f * . x V p T X.5.9.9.9.7.$.R m G I ; > S A ..I F D I S @ g D b G U c ",
"> 0.I 0.0.Y I S A P ; $ & ; & # X s G Z W ) 6.<.[ ] +.7.9.O.6 : & X S F F Y P Y U Y Y 1 X & $ & ; # ",
"% F 0.Y q.0.U Y I b # 2 l f d s # , G M T %.7.t { #.[ ;.9.1.Q w s # z U ....Y q.t.0.Y > $ d d s s s ",
"# d Y ..e.q.q.e.U , & ..U F | 0.g . d p T 1.3.t 8.9.9.9.9.7.( } U s * J Y P 0.w.e.t.c @ S ....P G U ",
"g $ c F F P q.Y z @ c 0.I D b D k & ; y E ,.3.t 7.9.9.9.9.4.! | =.F $ g Y Y =.0.0.P $ 1 Y Y ..I b Y ",
"F > ; A D F I b $ 1 0.w.Y A b I J V $ 0 T $.8.r @.9.%.>.9.&./ H Y I 1 @ V P P F c < X F =.Y A A F Y ",
"A x @ * ; & & $ . D y.e.Y F ....J J 2 o 4 ! 2.:.e t 9 >.7.` ] 0.....F $ @ $ $ & # . f w.I l g F I Y ",
"G j @ g j g f s . j e.t.Y I q.U Y I > & k T ~ &.4.,.3.1.` ^ *.....0.S # * < q q q % d U b G S l v S ",
"c @ d ..0.0.0.Y * * P w.0.0.0.J Y x X A U N ^ Q ) o._ ! i H ..0.0...1 ; G F Y =...l # l G Y I v v v ",
"> @ S J J ..0.G l @ g D P Y 0...G % 1 G J I L B ] u 3 w C F ....0.A + c ..P P ..q.U 1 ; I =...U I P ",
"  d S b V Y U P A 2 @ g c J U Y g X A F S J ..I ..U , * S b J I S % , =...P F P U ..D % z P I I F x ",
"$ b z b A Y P P P D % @ & & * * X g ..G S Y q.U ..w.F + & & * * # X b =...U J J =...=.1 X % & ; & O ",
"$ k g b J Y ..U J c @ 1 j d g g & s Y ....U U P U ..b O s f g s 1 # g J U ..w.q.=.Y z + & g f f j q ",
"$ d A b J ..0.0.P > $ U 0.I 0.q.l X x =.....G U U F # s  ...q.I j 1 & G U =.r.=.Y P >   F q.Y I I G ",
"d @ h l A J Y 0.c X j A I J U 0.P > > I ..Y P P U s O U .. .q.0.A A % j ..q.q.0.=.z X 2 e.0.F S G J ",
"l % & l v b  .F % > b d b G J  . .S $ g I P G J z @ d ..0. .I I G G d @ v I Y q.G 1 @ G u...P P b x ",
"V g O @ $ & ; @ O V F b G  . .G S  .d @ 1 , > > @ @ A I ..G S F I A b # # > , > & X g G x A ....G v "
};
