/* XPM */
static char *E_exit_closed[] = {
/* columns rows colors chars-per-pixel */
"50 50 167 2 ",
"   c #010100",
".  c #070807",
"X  c #080807",
"o  c #0B0C0B",
"O  c #0F100F",
"+  c #10100F",
"@  c #131413",
"#  c #171817",
"$  c #181917",
"%  c #1B1D1B",
"&  c #2F1A18",
"*  c #1E201E",
"=  c #20221F",
"-  c #232523",
";  c #272826",
":  c #282A27",
">  c #2B2D2A",
",  c #3B2B29",
"<  c #25302D",
"1  c #2E302E",
"2  c #30322F",
"3  c #323532",
"4  c #363935",
"5  c #383B37",
"6  c #373B38",
"7  c #3A3D3A",
"8  c #441816",
"9  c #431D1B",
"0  c #5C1615",
"q  c #541817",
"w  c #511918",
"e  c #641715",
"r  c #731413",
"t  c #731D1B",
"y  c #5A2927",
"u  c #483936",
"i  c #5E3330",
"p  c #672B29",
"a  c #742927",
"s  c #7E2826",
"d  c #683532",
"f  c #3E413D",
"g  c #41433F",
"h  c #424541",
"j  c #464945",
"k  c #484C46",
"l  c #454C48",
"z  c #4B4E4A",
"x  c #524E4A",
"c  c #4B5046",
"v  c #4D514C",
"b  c #50544F",
"n  c #4F5450",
"m  c #525651",
"M  c #555A54",
"N  c #595D57",
"B  c #565F59",
"V  c #5A5E59",
"C  c #674A46",
"Z  c #7F4D47",
"A  c #77544E",
"S  c #615C53",
"D  c #6A5C57",
"F  c #605D59",
"G  c #775D57",
"H  c #7A5F59",
"J  c #5B6057",
"K  c #5D625B",
"L  c #61665E",
"P  c #6B635D",
"I  c #74655F",
"U  c #5D6460",
"Y  c #626760",
"T  c #656A63",
"R  c #686D67",
"E  c #676F68",
"W  c #6A6F69",
"Q  c #786862",
"!  c #6D726C",
"~  c #70756E",
"^  c #7C716B",
"/  c #727770",
"(  c #7A7771",
")  c #757A74",
"_  c #787D76",
"`  c #777E78",
"'  c #797E78",
"]  c #930C0C",
"[  c #821615",
"{  c #921918",
"}  c #9E1B1A",
"|  c #A20E0D",
" . c #B80808",
".. c #A0100F",
"X. c #A31817",
"o. c #BE1B1A",
"O. c #BA221F",
"+. c #872725",
"@. c #862D2B",
"#. c #9A2927",
"$. c #8D3532",
"%. c #883A37",
"&. c #983936",
"*. c #AE2926",
"=. c #B72725",
"-. c #BE2422",
";. c #BA2D2B",
":. c #AF312E",
">. c #B4312E",
",. c #A73633",
"<. c #A13B36",
"1. c #AD3936",
"2. c #AF3D3A",
"3. c #B73431",
"4. c #B83735",
"5. c #C60505",
"6. c #CE0F0F",
"7. c #D30606",
"8. c #DD0606",
"9. c #DC0B0B",
"0. c #CD100F",
"q. c #CC1211",
"w. c #CB1A19",
"e. c #D51413",
"r. c #DA1211",
"t. c #D11D1C",
"y. c #E30505",
"u. c #E00808",
"i. c #C02422",
"p. c #C42927",
"a. c #C22A28",
"s. c #C03331",
"d. c #8F413D",
"f. c #9A423F",
"g. c #8E4642",
"h. c #864C46",
"j. c #994945",
"k. c #82534E",
"l. c #95504B",
"z. c #8D5550",
"x. c #865D58",
"c. c #855F5A",
"v. c #995954",
"b. c #995C58",
"n. c #A64542",
"m. c #B14441",
"M. c #A5504D",
"N. c #AC524F",
"B. c #B25753",
"V. c #846B66",
"C. c #976661",
"Z. c #9D6560",
"A. c #83726C",
"S. c #8A736F",
"D. c #887C76",
"F. c #807F79",
"G. c #7D827C",
"H. c #80857F",
"J. c #818780",
"K. c #848A83",
"L. c #888E86",
"P. c #898F88",
"I. c #899086",
"U. c #8B938A",
"Y. c #91978F",
"T. c #9C958C",
"R. c #949B93",
/* pixels */
"! k - M V M v h = v G.H.' H._ H k.c.3 4 F +...$.h % v Y W l.&.g.z.c.D - h v 4 4 v 2 g G.L R ) G.G.) ",
"K - k L.J.J._ _ g , ) J.H.J.) m.9.q.w T Z.9.r.C.T - 3 V L =.8.8.8.r.t > ' Y c J A.L ; K ) ) ) / G._ ",
"6 - ) J.( S.b.m.i.] b G.' ) G.D.a.y.o.Z i.y.2.) T k * n R I 1.y.e.#.8 M ) V M h.e.-.[ p G W ! G.) W ",
"# M H.b.a.e.9.8.r.X.= K R ~ _ ) C  .y.q.8.w.V.) ~ ! 4 3 ~ / n.y.o.: 2 W ! W T Z i.e.8.8.e.O.&.V.~ M ",
"< ) G.M.y.9.4.z.Q V : - : 1 1 1 $ d e.y.u.j._ J._ ! m * > 1 { y.| % V T ~ ' / ! L c.e.u.5.5.7.e 2 - ",
"< ! J.C.r.9.v.c.f.*.w 6 b v f f = u w.y.8.3.! J._ ! j % h u X.y.} % z ) ) ' G.K.G.C.9.7.p C d.g h g ",
"; j ' ^ w.y.6.9.u.7.a G.U.I.G._ n r 8.e.9.u.n.J.J.W - f ~ R i.y.,.3 > ) ' G.J.L.K.N.y.q.Q G.K.G.G.) ",
"h = U / :.y.9.4.%.9 ( H.J R G./ H 0.8.g.&.u.r.v.` h : ) Q k.w.y.n.V - g W / ' P.G.4.y.3.) K _ G./ G.",
"U 3 > V d.y.e.I < f T.S K R _ ) 3.y.| g P =.y.w.C % V K.M.7.u.y.e.2.x - V W ~ ' A.w.y.N.) g Y ) ) ! ",
"Y j @ = 9 7.8.s e X.t.<./ / m A ;.s.i = > , 0 q & > / W c.n.1.>.p.1.! > : 3 1 2 y 9.y.c.K k T ' G./ ",
"v 4 % l x w.y.8.8.9.t.B.K.' N T F.H.6 : v n z l 6 > R R ` G.) ) ~ ~ T - 7 z z j @.y.t.I c T ' H.) G.",
"g % 6 ' K.2.w.>.s w P H.H.' / ! ' N = K G.! T ! W > j ' G._ J.G.Y ! g > ) G.H.K.A.&.t K ~ G.' W ! R ",
"4 * b K _ ^ A./ B - 3 z B V V V z & ; n M f 4 h M 7 % z V m M V c j # 4 V ! G.K.' R 1 3 ' ' Y W ! G.",
"% m ~ L H.K.H.) ` v O     .   . .     . .     .       . .   .   .       3 G.G.K.' G.Y ; M W T / G.! ",
"3 _ ' ) K.K.G.) G./ -                     .   . .                       3 _ ! ! / G.! 7 = 2 4 > 1 ; ",
"> ~ J.J.G.H._ T E Y %   X 7 4 3 * - h l z m z z k h - @ 7 j f 7 7 %     * k m ! G.G./ 1 : z z m v f ",
"; v G.G.G.G.G.R J 4 X   o g # @ X X @ @ # @ # @ # o X . # $ # # # % .   % k J _ G.G.N % V ) G.K.J._ ",
"m ; J _ J.I.P.H.h % -   o 5 .                                     6 @   > R T _ G.~ > f ' / T ' H.U.",
"/ 3 2 / K.G.J.) = 7 k   @ v .                                     v %   1 ~ L ! ! j ; G.K.' ! ) ) G.",
"J.V - 2 3 1 4 1 $ M f   O h .                                     2 #   + > ; ; ; # v Y.I.G.) Y W G.",
"L.M - j m m M z - M f   o z X                                           % h 7 f j 1 h I.I.J.G./ / ' ",
"J - k G.J.K.U.' 4 1 4   @ v X                                           4 ) Y Y ! V - K / ! / ) K.G.",
"3 = K ~ J.G.J.G.K : %   o f .                                           : T L K / G.7 1 T ! W W / J.",
"% z W Y ! ! ~ ) G.v o   @ g                                       .     : T ~ ) G.J.Y - z W / T ! R ",
"6 ' ) W R K m J _ T %   . %                                       o o   > G.K.) ' ' ) j % > > : 1 ; ",
"3 T / G.~ N N L / L #   X 3 .                                     o .   1 ' J._ ' ' / 4 > v z j v g ",
"- 7 ! ~ / L K R _ f X   @ M .                                     % .   4 G.G.G.' J.V % M ! / G.G.) ",
"m - V ! ! K J L v % %   @ V .                                     3 @   3 G.H.J.H._ > h ) R Y G.K.K.",
"! 4 7 ~ / ! N J : > 2   @ M .                                     g %   1 _ G.G./ k - ) J.) W ) ' G.",
") M - 2 1 1 > - % z >   O v .   .                                 k *   O : 2 2 1 $ j J.) ) ! T / ' ",
"/ z - h z j k h - m 4   o z . : Y 3                               j %   % h f z v 1 > R ) ! / / ) / ",
"V - h ! ) K.G./ 6 : 3   o h . j ) 4                               j %   2 G.' G.K.m = N K.K.K.Y.L.! ",
"3 - W W ) ~ Y ) T : %   @ z . # 4 @                               > o   2 H.' / ) / 7 3 ) ) ) L.K.R ",
"# M J.G.' ) Y W / m @   o k .                                     @ .   : G.) R R ) R % k R F ! _ B ",
"3 J._ G.J.G.) T Y ~ -   . %                                       O X   > ' / _ _ ' ' 6 % > ; > 2 - ",
"> W J.' J.J.' ' _ K %   X 1 .                                     o X   3 H.' L.U.J.' 4 - j k h h h ",
"- j ' J.L.K.K.P._ 4 X   @ j .                                     * .   > ) K.K.I.U.K % T J.F./ ! _ ",
"z - V R R / J.H.M - -   o k .                                     f @   3 ' G.K.K.~ : 5 ' ' H./ K _ ",
"W 3 2 Y T W ) F - f z   o f .                                     j %   > / ~ W V 4 % ! H.' Y Y R G.",
"Y V - > 2 1 > - $ W v   O h .                                     % X   O : : : ; # z P./ b z W ) _ ",
"W v - l m z z h % v k   o v X                                           # 5 g g f ; j _ K ~ R m J T ",
"V - h G.J.J.G._ 1 3 7   @ m .                                           : R _ H.G.M - m ! _ / J J J ",
"4 = T ~ ! G.J.! v ; %   @ v .                                           1 ~ ) G.H._ 7 2 ) G.G._ ) / ",
"@ h T J Y G.` / T f o   o z .                                     o     1 ! W ~ _ G.R ; N / _ / W N ",
": J N J T ' ) / / T *   . -                                       O o   2 _ ~ / G.G.H.7 * ; > 3 > * ",
": m c K ! ' G.) ~ N #   X > .                                     O X   1 G.K.I.H.G.M * > k j z v f ",
"; h U K ! G.J.J.) 4 X   + M > : - X # ; ; - - - : % X % - - : ; $ : X   1 K.U.G._ / 3 # W L.' / ) ! ",
"j ; c m Y ! G.J.V % %   . 4 f h 4 @ - h g h 7 7 g > o 7 h f j h 1 3 .   3 H.K.K.G.N $ g P.G.! T ! / ",
"b : 1 m J K / ! > 3 4                                                   : / ' K.! 7 % ~ R._ / / L M ",
"K c % - ; 1 1 - % Y f     .   . .                                       @ 3 4 3 > % v ! N T G.G.! J "
};
