/* XPM */
static char *E_exit_closed_[] = {
/* columns rows colors chars-per-pixel */
"50 50 60 1 ",
"  c #010101",
". c #070807",
"X c #080807",
"o c #0B0C0B",
"O c #0F100F",
"+ c #10100F",
"@ c #131413",
"# c #171816",
"$ c #181917",
"% c #1B1C1B",
"& c #1F201E",
"* c #20211F",
"= c #232523",
"- c #272826",
"; c #282927",
": c #2B2D2B",
"> c #2E302E",
", c #30322F",
"< c #333532",
"1 c #363935",
"2 c #383A36",
"3 c #3B3D3A",
"4 c #3E413E",
"5 c #40423F",
"6 c #444A3F",
"7 c #434542",
"8 c #464945",
"9 c #484B47",
"0 c #474A48",
"q c #4B4D4A",
"w c #4B5146",
"e c #4E514C",
"r c #50544E",
"t c #525551",
"y c #565A54",
"u c #585D57",
"i c #5A5E59",
"p c #5B6157",
"a c #5D625C",
"s c #61655E",
"d c #5F6460",
"f c #626660",
"g c #656A63",
"h c #686D67",
"j c #6A6F69",
"k c #6D726C",
"l c #70756F",
"z c #727771",
"x c #757A74",
"c c #787D77",
"v c #7A7E79",
"b c #7D827C",
"n c #80857F",
"m c #818680",
"M c #848A83",
"N c #888D87",
"B c #889086",
"V c #8C938A",
"C c #91978F",
"Z c #949B93",
/* pixels */
"k9=yiiq7&ebnvmcjjz<<aiid5%rfhkaglzf&7e<2r<4nghzbbx",
"a=0Mmmcx5>zmnmzcvi&gbvMMf;<iafjkbm4:chwpca=dxzzzbc",
"2=xmxncml=qvvxbnj-;fhlxxgq%tjhzvmf%ucuyhcv3:dzkczk",
"#ymmmvnmx5=shlccq*ahjhxxkk2<lzxxl:<jjjhdzzr&rkgzzy",
":cbmMnvzki:*-;;:%0bczjcMckt%:>:;=#7rdkkzgkk3=<;;>=",
":jmvjjxlku=3=    2tqhhjxjk8%52@    XoO1bnbc2;q5287",
"=0vxhfcvz2:nq &:*%$ %qt%<h=oeh71= X&%$3MMNa&hbMmxx",
"7=izhgxbf*lM2 2uf<&- +OX74@ =dhvdXX5fjzNbc:8zacbzb",
"i<>afxxj:5Zi<  o3f=2% X7t*3o=ihziX+=ajzcvq-zx7fzxk",
"f8@%=>,;&jnx4 o%8b7@o o:=:iX-jjzd =:-<>>,&wca8hbbz",
"e2%0qrq7=sNC7 %7hb1 @% =3:0 1bccy.%=3ee0r:8kwgvbxb",
"6%2vmnnc2;fb3   *ro.rtX%i:& 7cbbw o>zbmmvt-pkbvjkj",
"<&racxxzi=3fje72:=>0za% 0y@ qzkz8 o0gkbMvj><vvfjzx",
"%yzabMnxce=izkzj7=vvmzuo4k-@kbyw4 :gzcnMvvd-tjgzbk",
"<xvxMMbcbz:=>;;:=qmbbvbakj8&1,>*#ohmnczkcvl3&<<:,-",
":zmmnncfjf-3q31<*3fahkkkjp3%20442&tka0tkvvz>;qerr5",
";wbbbbbhi<>zh%+oXX++@@o@+oX.@#@@@ X+#7ucbvu%ycbMmc",
"t=pbmVBn7%gNh+                  .   @shvbz:7bzhcmV",
"z<<zmbmx&2NMk@ 1y0@:0qr8;o2er9<8qr> @hsjk9=bmbzzzb",
"mi=><><>$txcj@ 7;+.o@@@@o O@@Oo@@;8 o;=;=$qZBbzfjb",
"Nt=8etye=tzkpo 8%                @3 o4450:7NVmbzzb",
"p-0nmNVv2>zch@ 1O                @= @jdfzi=azjzzmb",
"<&akmbnba-exk@ 7@                 X @paalb3,hkjkzm",
"%ejdkklxbq-kx@ 7#                   @pzzbmf=9kkgkh",
"2vzkhptacf=;>o %o                   @lNxvcv7&:>:>-",
"<gzbkppfla&<qO ;o                 . @kmvbvz<:e98e5",
"-2kklaahb4;hk# q%                 o #xbbvmi&tkzbbz",
"e-akkaaae%0af@ 9%                o% @xnmbc:5zjgbMM",
"z22lxkya-;agh@ 7@                @1 @kbvz0=znzkzvb",
"xy=,>>:=%9pap@ 8%                #0 X-,<,$0mczkfzb",
"zq*7w097=rfii@ 8%                #5 o44qr:>jckzzxz",
"u=7lxnbz2;kji@ 4@ ..             O= @zvbmy&uMmMCNk",
"<=jjzzfzf;tbj@ 2@ 26             .o @xvzxz3<xxxNnj",
"$ymbbzfkzt;fj@ ;@ot2              @ @xxhhxj%0hakcu",
"<bcbnbxffl,--o #. @.             o1 $zzvcbv2%:-:>=",
":knvMmcbca=50o =o                o; @xvMVmx1-79787",
"=0bbNMMNc1:bz@ 7#                .O @jMMBVa*hnbzkc",
"q=ijjlmby=amk@ 2@                o# @lmmnl-2vcbzac",
"k1:fhkzs=3mNz@ 7@                @; @jlja1&jnbfshb",
"ai=::>:=#jVNz@ 7@                @5 .=;;=$qNlrqjzb",
"je*9req7%eVVl@ 4@                .@ X<565;9xalfyyg",
"p-8bnnnc>>zNc# 4@                   +scnby-rlclppa",
"<*gkzbnke-0hj@ 7$                   @hzbnc3,xnbcxz",
"@7gadcczf4&wtO 7@                 o @gjlcbg;yzxxjy",
";ayafvxzzh;=-o %o                o< @lllnvn4*-:>:&",
";twakvbxky=39o ;o                o= @xNNnvy*:q0qe5",
"-7dalbmmz1;xv@ q= o@@Oo@@o +++@+o@@ @cVnvz,#hNvxxk",
"7-wtfkvmi%tfk@ 27%&009778;@8q8ee22@ #cMnny#7Nnhgkz",
"t->tpaxj;<a8pO  .   . .     . .. .  @jbmk2=zZczzsy",
"dw$=->>=&djaa& ..          .        .:11;%qkufbbkp"
};
