/* XPM */
static char *E_exit_open_[] = {
/* columns rows colors chars-per-pixel */
"50 50 61 1 ",
"  c #000000",
". c #070807",
"X c #080807",
"o c #0B0B0B",
"O c #0F100F",
"+ c #10100F",
"@ c #131413",
"# c #171817",
"$ c #181917",
"% c #1C1D1B",
"& c #1F201E",
"* c #20211F",
"= c #232523",
"- c #272826",
"; c #282A27",
": c #2B2D2B",
"> c #2E302E",
", c #30332F",
"< c #333532",
"1 c #363935",
"2 c #383A37",
"3 c #3A3D3A",
"4 c #3E413D",
"5 c #40433F",
"6 c #434A3F",
"7 c #434642",
"8 c #464945",
"9 c #484C46",
"0 c #474A48",
"q c #4B4E4A",
"w c #4B5146",
"e c #4E514C",
"r c #50544E",
"t c #525551",
"y c #565A54",
"u c #585D57",
"i c #5A5E59",
"p c #5B6157",
"a c #5D625C",
"s c #61655F",
"d c #5F6460",
"f c #626661",
"g c #656A63",
"h c #686D67",
"j c #6A6F69",
"k c #6D726C",
"l c #70756F",
"z c #727771",
"x c #757A74",
"c c #787D77",
"v c #7A7E79",
"b c #7D827C",
"n c #80857F",
"m c #828780",
"M c #848A83",
"N c #888D87",
"B c #898F88",
"V c #889086",
"C c #8C938A",
"Z c #91978F",
"A c #949B93",
/* pixels */
"k9=yuuq7*qnnvmxjlz<<iiaa5&efjjagkzf&7e<2r<4mggxcbx",
"a=0Nmmcx5>zmnmxcvy%hnvMMf=<iffjknm4:vhwaca=dxxxlbc",
"3-xmxncml=qvvznmk=;fgzxxgq%tjgzbmf&yxiygcv2,gkkcxk",
"#tbmmvvNx5=shlxx0=ijjhxxzj1<zzzxl:<jkhgfxlr&rkgzly",
":xbmNbvxki-=-;;:%0bxzjcMckt&:::;-@7rdkllgkk3=<;-:=",
":jmchjxlku=3=    3tqhjjxjk0$73O    .oO<mbbc1:q4387",
";0cxhfccl2:nq &:*%# %qt%<g=otg72= .&%%1MMNa=fbNmxc",
"7=azjgxbs=zM2 1uf<&- +O.55@ =fjcd.X4fjzNbc:7xaxblb",
"i<:afxxj:4Ap< .o3f=3% .7t=3o=igzu.o=akzcbw=kx7dzxk",
"f0@&-:<-&jnx4 o$7c7#o o:=:y.-jjxa.=:-,>>>&eba0hvbx",
"e2%0qtq7=pNZ5 &7jm1 @$ =1:0.<bccu.%=3eq0e:0j8hvncc",
"6$2cmnmc3-gb3   =q+ ry.%a:& 7cbb9 o>znmmbt=pzbvjlh",
"<&esczxzi=3fje71:=>0za% 0y@ ezll0 o9hkbNcj,<vvfkkc",
"%yzsbMnzce=izjzj7=cbmzyO3l;@kbyw4 :gzcbMccd;yjfzbk",
",xvxNMbcbz:=<;=;*qmcbvbdlh8&<,:*#ogbbckkxvk3*,,,,=",
":zmmbbcgjf;3q007;7zq,0yhkg4&eyee0=ybh9ykbvz,-eqrr5",
"-wbbbbbha<>zkieq:#7<   o$%O:zcbxz3=uuwpxbcu&ixbMbb",
"t=pbnCVn5$gNkwo             .#=;1e=>ghgcmz:5clhcnC",
"l<<zMbmx&2Nmbfo ==o.             9e$ylskk0=bmbkzxb",
"ma=><><>#ycczyXogz3o             9z;=:=-=$eZCbxgjb",
"Ny&0etye=tzkhaoogg>o             3d=17350:7NCmcxzb",
"a=0bmNCc2>zckao.r7&-             <1;bxffzi=azjlxnb",
"1&almbmbp-excy.X4&,1             ;&dxgaazb4,gkkkxn",
"%ehdzkkxbq-jnt.o1=t>             O1bkgzzcmf=0kkgkh",
"1cxkhpypch*;1= .#tc2             OycccNxvcc7%:::>-",
"<glbkauaza&,t5..=7z3             OebvvMxnvl1:r08e4",
"-2kkzaahc4;hckoOq-s9             @:xNbbbcmi%yklbbx",
"e-akzapae%8allooh537             >;tmbnmnx:5xhgbMM",
"l13kzkyp-;agzjoojz:=             3r:hcbbz0=xmxjzcb",
"xy=<>>>=%9pagfoojm0o             0x:*;>>>$0nxxkgzv",
"zq&7w997=tgufdookk:o $=          7f*184qr:>hxkzzcl",
"u=0kcbbz2-jjhtoof4$= 5i.         41:xbvnmy*yMmMANk",
"<=jjzzgzg;tccfXo5&27 &>          =&ibnxzxz4<zxxNnj",
"#ymbbxfjzt:flaX.=%p2             o1gfbxjhxg%0hplxu",
"<nxmbbxffk,-:-. @7l4             @gjjvzxxbc3%:-:>-",
":jmcmmcbca=5r4..%2k5             ouxcnvNZmx1=90777",
"=7bbNNNNc1:bvioo3$02             #<kcxmNCCp*gmnlkc",
"q;uhjkmby&amcyXX7<,<             1-9cvbmnl-3vcbzac",
"k1>fhjxa-3mBnt.osf-*             44*szljp2%jnbfshb",
"au=:>>:=#hCBcyXosl4o             7k-=-;:-$qNlrqjxx",
"hr*0tq07%qVCbfoohx1o             9h=,2554-9xslgtug",
"a=8bmmmc,>zNmjooji*;             74,khbnbt-rkclppa",
"<&gkkbnkr;0hzgooa;33             ;*pblzbnc3,xnbccz",
"@7gagcczf3%eaaoo3=f7             o2nbljlbbg-uzxxhu",
";ayagcxxzg==;;. #qm4             @snbcllnnn4&-:>:&",
";twalvvxlu=3e773;7v0         .@&=%qlvnMNnvy*:q0qw4",
"-7dpzvmMx<;xNxmNt%iq    oo.:edxze3:kxnCnxl,#hNvzxk",
"7-wyfkvmi$egzkxmk<30%<7tg3=xbbMbgf;ennMnny$5Nmjgkz",
"r::tpabg;<pwajlbbd-7zzlzp&7bnbbxkk7&azbmk3&kAbzzau",
"a0&=-:>=&djpjbblab6=21<<**dxbkdjzsa-=<2<:%qkygbbka"
};
