/* XPM */
static char *E_exit_open[] = {
/* columns rows colors chars-per-pixel */
"50 50 167 2 ",
"   c #000000",
".  c #070807",
"X  c #080807",
"o  c #0C0D0C",
"O  c #0F100F",
"+  c #10100F",
"@  c #131413",
"#  c #171817",
"$  c #181917",
"%  c #1C1D1B",
"&  c #1F201E",
"*  c #183218",
"=  c #20221F",
"-  c #232523",
";  c #262926",
":  c #282A27",
">  c #2E272D",
",  c #2B2D2B",
"<  c #273127",
"1  c #2E312E",
"2  c #30322F",
"3  c #333532",
"4  c #363936",
"5  c #383B37",
"6  c #3B3D3A",
"7  c #154416",
"8  c #1C4C1D",
"9  c #165717",
"0  c #185519",
"q  c #136414",
"w  c #137814",
"e  c #19771B",
"r  c #1C791D",
"t  c #275F28",
"y  c #334732",
"u  c #3E413D",
"i  c #3E493D",
"p  c #3A5339",
"a  c #276A27",
"s  c #296B29",
"d  c #287A29",
"f  c #316C32",
"g  c #40433F",
"h  c #434642",
"j  c #464945",
"k  c #484C47",
"l  c #4A4D4A",
"z  c #4B5046",
"x  c #4E524C",
"c  c #495948",
"v  c #50544F",
"b  c #52584F",
"n  c #525651",
"m  c #565A54",
"M  c #595D57",
"N  c #5A5E59",
"B  c #446C44",
"V  c #4A6B49",
"C  c #53674F",
"Z  c #4E784C",
"A  c #596457",
"S  c #596D57",
"D  c #5D625B",
"F  c #5E6B5C",
"G  c #5D725C",
"H  c #5C7B5B",
"J  c #61655E",
"K  c #606B5E",
"L  c #626661",
"P  c #686767",
"I  c #656A63",
"U  c #686D67",
"Y  c #6A6F69",
"T  c #687067",
"R  c #637E62",
"E  c #6D726C",
"W  c #6E786C",
"Q  c #70756F",
"!  c #727670",
"~  c #757A74",
"^  c #787D77",
"/  c #7A7E78",
"(  c #0C980E",
")  c #158617",
"_  c #17971A",
"`  c #07BB0A",
"'  c #0EA510",
"]  c #16A719",
"[  c #19A31B",
"{  c #278828",
"}  c #259E27",
"|  c #368C37",
" . c #3D833D",
".. c #309332",
"X. c #379838",
"o. c #389839",
"O. c #1FBC21",
"+. c #22AC24",
"@. c #24BC26",
"#. c #26B328",
"$. c #2DB42F",
"%. c #2BBB2D",
"&. c #35A436",
"*. c #33AA34",
"=. c #3EAA3F",
"-. c #35B336",
";. c #34BF36",
":. c #36B438",
">. c #3BB53D",
",. c #05C809",
"<. c #06D309",
"1. c #06DD0A",
"2. c #09DD0D",
"3. c #11C814",
"4. c #17C51A",
"5. c #18C11B",
"6. c #17CD1A",
"7. c #1ACB1D",
"8. c #0ED012",
"9. c #0DDC11",
"0. c #12D515",
"q. c #12D816",
"w. c #16D319",
"e. c #1AD31D",
"r. c #03E507",
"t. c #05E209",
"y. c #08E00B",
"u. c #1FC421",
"i. c #21C324",
"p. c #27C529",
"a. c #2FC232",
"s. c #30C432",
"d. c #3EAC40",
"f. c #488547",
"g. c #468C45",
"h. c #4D864D",
"j. c #419441",
"k. c #479D48",
"l. c #578457",
"z. c #598A59",
"x. c #529152",
"c. c #549D54",
"v. c #41AA42",
"b. c #49A74A",
"n. c #4CAC4D",
"m. c #40B242",
"M. c #4CB34E",
"N. c #5CA25C",
"B. c #51B852",
"V. c #678566",
"C. c #658B65",
"Z. c #6D836C",
"A. c #6C8C6C",
"S. c #639563",
"D. c #728171",
"F. c #768D75",
"G. c #7D827C",
"H. c #80857F",
"J. c #818680",
"K. c #858A83",
"L. c #888F86",
"P. c #898F88",
"I. c #899087",
"U. c #8C938A",
"Y. c #91978F",
"T. c #949B93",
"R. c #8CA68B",
/* pixels */
"E k = m N N x h & x G.H.G.H.~ l.h.z.2 3 D { ' ..i & x L T k.X.j.x.z.S % h x 3 5 v 3 u G.I P ~ G.G.~ ",
"D - k P.J.J./ ~ i 3 ! H.G.H.~ v.2.0.0 P N.2.9.S.L : 3 A F @.1.2.9.9.e , / I x A A.A - L ! ~ ~ Q G./ ",
"6 - ^ J.D.A.z.m.7.( x / G.~ G.F.p.t.3.h.i.r.>.! L l & v U H -.t.9.} 7 M ^ N m g.0.u.) s H T Q ^ ! T ",
"# n H.c.p.q.y.y.q.] ; J U Q ^ ^ B ` y.8.2.6.V.^ W E 4 3 ! ! d.r.5.< 1 T Y U I f.i.0.1.2.0.O.&.C.Q m ",
", ^ G.n.t.y.:.x.R A : = : 1 1 1 % f q.y.y.b.^ H.^ E n & , , _ r.' & M I E G.! E L z.q.t.,.,.1.q 1 - ",
", E J.S.9.9.c.z.=.#.8 5 v v g u - y 7.t.1.$.W H.^ E j % h u ] r.[ & k ~ ~ ^ G.K.G.S.9.<.a V  .p h h ",
"- j / W 7.t.9.2.t.<.d H.U.L.G.~ n w 1.q.2.1.v.H.J.U - u E T p.r.*.2 , ~ / G.H.U.K.M.t.8.R G.K.K.^ ^ ",
"h - D ! $.r.9.;.| 7 ~ H.D I H.! H 8.1.o.&.t.9.c.^ h : ! V.h.6.t.d.N - g T ! ^ L.G.a.r.a.! D / G.! / ",
"D 3 , D o.2.w.R > u R.C D U / ~ ;.t.' i K %.t.6.B & M K.b.2.1.r.0.-.z - D E ~ ^ Z.e.r.M.~ j J ! ^ E ",
"L j @ & 8 <.2.) q +.e.&.! ! v Z %.s.t & , 8 9 9 * , ! E z.v.*.$.p.-.E 1 : 1 2 > a 2.9.z.J j I G./ ~ ",
"x 4 % j c 4.r.1.y.2.e.B.K./ A I G.G.6 : n l l k 6 , I P ^ / / ^ W W I - 6 x x j { t.e.H j I / H./ / ",
"g $ 6 / K.>.w.%.{ 8 G G.G./ E E G.A = N / Q L E I , j / G.^ G.G.U U u , ! G.H.J.C.o.r A ! G./ Y E U ",
"4 & v D / Z.Z.! M - 6 L ^ / G./ J - h ~ / D n D ~ m - D H.! ! ! U m - k P ! G.K.^ Y 1 4 / / L Y Q / ",
"% n ! D G.K.H.~ ^ l - j m n N n 4 @ n N D x v l N m % 1 L D h 6 l : & h v m L H./ / L - m Y I ! G.E ",
"2 ^ / ~ K.K.G.~ / ! , . .     .       .   . .     .       .     .         . o L / / ! 6 = 2 3 2 3 - ",
"1 Q J.H.H.H./ L Y P -                                                       o L G./ ! , : l l v l h ",
": l G.G.G.G.G.T D 3 - o   O u h 6 @ 3 l j k l k 6 - o 1 6 - #         $ #   o U J./ M % N ^ G.K.K./ ",
"m : D D.H.P.U.G.h $ N $   % E G.G.g 4 U Q ^ ^ L l - . # @ .           : :   O U H.! , h / Q I ^ G.U.",
"! 3 1 ! K.G.H.^ = 6 G.#   - Q ^ L.! - j E 3 o .                       + #   o D E j - G.K./ E ~ ~ G.",
"J.N - 1 3 1 4 , $ v E #   - U Q G.^ 6 % , o                           . .     - ; $ x Y.L.G.~ L U G.",
"L.m - j l n M x - m U @   - ! G./ L 2 - 5 o                                 . 4 j , g I.I.J./ ~ ! G.",
"N - k G.J.L.U./ 5 1 U #   - U L A h % v D $                                 o m ! N - D ! E ! ~ K.G.",
"3 - N ! J.G.H.G.D , h @   % I Q l % 2 J D $                                 o n ! H.6 2 I E Y E ! K.",
"% l U L Q E E ^ / l % o   % M ! j - v A U %                           @ o   O I G.J.L - l Y Q I E I ",
"6 ^ ^ U U A m N / I =     + : , % v ^ U ! &                           6 3   o I / ^ / h = : 1 , , : ",
"3 L ! G.Q N M J ! D %     $ l l 1 h Q P ! %                           6 3   o I G.G.Q 4 , x k k x u ",
"- 6 E E W J D U ^ u - O   , H.J.D - D G./ %                           u 4   o E G.H.N % n E ! G.G.^ ",
"n - D E E D D J x % 6 @   : ^ G.G.h 4 G./ %                           6 4   @ Q H.~ , g ~ U L G.K.K.",
"Q 4 6 Q ! E M D : : m @   - ^ ! / ! 1 m E $                           $ -   o E ~ j - ! K.! E ! / G.",
"^ m - 2 1 , , - % k x +   , G.G.G.G.h - , o                           o X   . , 2 $ j J.! ! E L ! / ",
"Q l = g l j k h - n M @   : ^ G.G.E , - 6 @                           o o   X h x > 1 T ^ E ! ! ^ E ",
"m - h Q ^ H.G.~ 4 , D #   & U E ! 6 # v E % . 3 %                     - ,   O E K.m = M K.K.L.Y.L.E ",
"3 - Y Y Q Q I ~ L : j #   & J D b % 4 ^ ! % @ m 4                     u 4   o L ^ Q u 1 ! ! ^ L.H.U ",
"# m H.H.G.~ I U Q n - o   - M z 1 $ A L E & . u %                     2 :   o N U ^ U % l U D E ^ N ",
"3 H.^ H.G.G.! L L E ,     o , - $ h E E ^ &                           2 :   o U ^ G.^ 6 % , : , 1 - ",
", Y H./ K.K./ / / D -     # j h - 4 E ^ ^ %                           6 3   o ^ U.K.^ 3 : j j g h h ",
"- j G.G.P.K.K.U.^ 4 - o   - G.G.z % h E ^ %                           6 3   @ ! U.U.D = I G.H.! E ^ ",
"l - N U U ! J.G.m & n #   % A L v 1 1 U ! %                           3 1   O ! K.Q - 5 / ^ G.! J / ",
"E 4 1 L U E ^ D - u ^ @   % D ^ Q I : k N #                           # %   o N A 4 % E G.G.L J U / ",
"J m = > 2 , , - $ U K.#   - G./ E E 6 % & o                           o o   . - - $ l L.! v z E ~ ^ ",
"T x = k v x k h $ x G.$   : K.~ ^ ~ 3 , j @                           . .   . 5 g : j / D Q I m M I ",
"N ; h H.H.H.H.G.2 2 U #   , K.E / m % L ^ $                                 o Q G.m - v E / Q M A D ",
"3 = I E E G.G.E x : u +   , H.G.E , 6 E U %                                 o E K./ 6 2 ~ H.G.^ ^ ! ",
"@ h I D J G.^ ! I u # .   - ~ / l & L U D $                                 o I / G.I : m ! ~ ~ U M ",
": D m A L / ! ! ! U :     o 1 1 % l G.E L $                           o o   o L G.G.G.u = : , 2 , % ",
": n k J E G.G.^ E N %     # k l , h / G.^ %                           4 1   O ^ H.G.M = : l j l x g ",
"; h J D E G.J.J.~ 3 & o   - H.K.m % N H.G.l % o                       6 3   O W G.! 2 # P L./ ~ ^ E ",
"j ; z m L E G.J.D % j @   - ^ J.E 3 3 ~ / G.! L v $ o o               3 2   O ! G.m $ h I.H.U I E E ",
"x : 1 n A D ~ E , 3 N o   - E ^ ^ I ; j ^ ! E ! N & h Y N 4 & o       # %   o ~ E 6 & E T.G.! ! D m ",
"D z # ; ; , 2 - $ J J #   : G.Q T ^ h - 5 4 3 3 & = L ^ J.E J N x , @ o o   . , , % x E M L G.G.Q A "
};
