/* XPM */
static char *N_enemy[] = {
/* columns rows colors chars-per-pixel */
"50 50 184 2 ",
"   c #151513",
".  c #181917",
"X  c #1C1D1B",
"o  c #241C1B",
"O  c #371D1B",
"+  c #1E201E",
"@  c #20221F",
"#  c #33201F",
"$  c #232523",
"%  c #272826",
"&  c #282927",
"*  c #2B2D2B",
"=  c #372523",
"-  c #352A28",
";  c #2E302E",
":  c #30322E",
">  c #3A322E",
",  c #2F3230",
"<  c #323532",
"1  c #363936",
"2  c #383B37",
"3  c #3A3D39",
"4  c #401F1D",
"5  c #4E1C1A",
"6  c #571918",
"7  c #671918",
"8  c #791817",
"9  c #63201E",
"0  c #422422",
"q  c #422825",
"w  c #5D2322",
"e  c #5D2C29",
"r  c #453633",
"t  c #473936",
"y  c #5C3E3A",
"u  c #772623",
"i  c #703935",
"p  c #3E413D",
"a  c #40433F",
"s  c #644139",
"d  c #71423D",
"f  c #424542",
"g  c #464A45",
"h  c #494C47",
"j  c #4A4E4A",
"k  c #564C48",
"l  c #4B5046",
"z  c #4D514C",
"x  c #51544E",
"c  c #525651",
"v  c #565A54",
"b  c #595D56",
"n  c #5A5E59",
"m  c #664845",
"M  c #6B4B45",
"N  c #744942",
"B  c #74544D",
"V  c #625752",
"C  c #7C5A54",
"Z  c #715F5A",
"A  c #5B6057",
"S  c #5D625B",
"D  c #61655F",
"F  c #6B635D",
"G  c #626760",
"H  c #656A63",
"J  c #686D66",
"K  c #6A6F68",
"L  c #7E6B65",
"P  c #746E68",
"I  c #7A6E68",
"U  c #6D726C",
"Y  c #71756F",
"T  c #7E726D",
"R  c #727770",
"E  c #7F7670",
"W  c #757A74",
"Q  c #787D77",
"!  c #777E78",
"~  c #7A7E78",
"^  c #8C0F0F",
"/  c #9B0E0D",
"(  c #8E1E1D",
")  c #991B1A",
"_  c #A20D0D",
"`  c #A80E0E",
"'  c #B10B0A",
"]  c #BB0B0B",
"[  c #B1100F",
"{  c #A91110",
"}  c #A91A18",
"|  c #B61B1A",
" . c #822624",
".. c #912B29",
"X. c #8A312E",
"o. c #9D302E",
"O. c #953530",
"+. c #A12A27",
"@. c #A32D2A",
"#. c #B62926",
"$. c #A1312C",
"%. c #AA3A36",
"&. c #B63734",
"*. c #B53D3A",
"=. c #BD3C39",
"-. c #C20C0C",
";. c #D40909",
":. c #DC0909",
">. c #C6100F",
",. c #C71917",
"<. c #DD1413",
"1. c #D71817",
"2. c #D41918",
"3. c #DD1B1A",
"4. c #EC0707",
"5. c #E50B0B",
"6. c #EC0B0B",
"7. c #F10707",
"8. c #F10808",
"9. c #E8100F",
"0. c #E41413",
"q. c #E81111",
"w. c #E11B1A",
"e. c #D3201E",
"r. c #C42321",
"t. c #CB2523",
"y. c #C52A27",
"u. c #C32D2B",
"i. c #CA2D2B",
"p. c #D82523",
"a. c #D6302D",
"s. c #C63432",
"d. c #C53937",
"f. c #A5423E",
"g. c #AB403D",
"h. c #B2413F",
"j. c #8B4A46",
"k. c #9C4B47",
"l. c #84534E",
"z. c #8E534E",
"x. c #8C5550",
"c. c #855B56",
"v. c #8D5D58",
"b. c #9C5651",
"n. c #915955",
"m. c #995D58",
"M. c #AD4441",
"N. c #A14F4C",
"B. c #B74744",
"V. c #B04E4A",
"C. c #A9524E",
"Z. c #B4504B",
"A. c #A45B57",
"S. c #B15D58",
"D. c #80645F",
"F. c #92625D",
"G. c #99625E",
"H. c #A4615C",
"J. c #846B65",
"K. c #8C6863",
"L. c #886A65",
"P. c #8E6E69",
"I. c #9C6661",
"U. c #83736D",
"Y. c #92756F",
"T. c #827671",
"R. c #8A7772",
"E. c #847C76",
"W. c #8C7B75",
"Q. c #807E78",
"!. c #A16D66",
"~. c #C14240",
"^. c #768177",
"/. c #7D827C",
"(. c #81857F",
"). c #89847D",
"_. c #828780",
"`. c #848A83",
"'. c #888E86",
"]. c #898F88",
"[. c #8A9186",
"{. c #8C938A",
"}. c #91978F",
"|. c #949B93",
/* pixels */
"U h $ v n v z f @ z /.(./.(.Q K K R < < S n S D a X z G K U S G Y R H + f j < 2 x : a /.H J R /./.W ",
"S $ h `._._.W W a ; R _./._.W Q ~ v X J /.~ `._.G % < n D G J Y ~ _.p * W J l S Q S $ G W Q W Y /.Q ",
"3 $ Q _.Q _.~ `.U $ j /.~ Q /.(.K $ & G H Y R R H h X c J J R /._.G X v W n v H Q ~ 3 ; G U U Q W K ",
"  v /._._.~ ~ `.W f $ S K U Q Q h $ S K U H Q Q Y U 1 < Y R R W Y * < K Y K H G Q R x + c U G R Y v ",
"; W Q._.`.(.~ R U S & @ & ; * ; X h ~ W R U Q _.Q U x + * ; * * * X n H U ~ Q U G U K p $ < & & ; $ ",
"* U _.~ K K W R U n $ 3 x x p p $ 3 U /.W J U _.Q U g X f p 3 , 1 X h ! Q Q /.`././.Q 1 & h p 3 f f ",
"% g ~ W J G W ~ R 1 ; /.{.'./.Q c X n /.W n Y _._.J & p U J K U H < * Q ~ ~ _.[._.'.S $ H /.`._.Q Q ",
"f + n R J H W _.G + R /.S J _.U H u  .c.J U W /.! f % W U D J ^.~ n $ p K R ~ ]./.Q * g R S ~ /.Y /.",
"S < ; n H W W K * a |.n S J Q F.i.6.4.r.Z ! ~ W v X n `.Y S H Y Q Q l % S U R W ~ z $ R Q f G R Q U ",
"G g   + $ * , % + K (.W Y R x %.6.8.8.] q * < , $ * R K Y K K Y Q Y n.7 - , , ; < X z Q S g J /.~ R ",
"j 1 X g j c j f $ S `.{.'.~ b #.8.6._ e x x l h 1 * H J Q /.! Q U x.3.:.( j j g j * g U g H ~ (.Q ! ",
"f X 3 W `.(./.Q 3 & J /.~ Q I t.4.5.6 n W U G J J * g ! /.W /./.H z.0.7.0.I._._.~ v $ n Y /.~ K U U ",
"1 X z S Q W Q R n $ 3 G Q ! E.s.8.4.o.R Q S x B k.X.5 F /.R Y Y J V { 7.4.h./.`.~ K ; < ~ W H K U ~ ",
"X v Y S /.`./.W Q z $ n R K Y k.4.8.3.m.(.L f.1.6.6.:.+.W.^.v h S > ^ 8.8.=.(.`.~ ~ H $ v K H R /.U ",
"< Q ~ Q `.`./.Q /.R * % , % $ = ] 7.8.0.d.i.6.7.8.8.7.4.r...u 9 ( ` :.7.6.M.R U Q ~ Y 3 @ , < ; , $ ",
"* R _._.(./.~ H J H $ 3 j h f a w -.8.4.7.7.8.7.7.8.7.7.7.4.4.6.7.7.7.8.,.s c U ~ /.R * % z j c z f ",
"& l /././././.J S < ; R U S Y R v 5 | 6.7.4.7.7.7.4.7.7.7.7.7.7.7.4.:.r.N h n W _.! n X n W _.`._.Q ",
"c & S ^._.{.]._.f . G '.U n K /.~ f w 9.7.7.7.7.8.8.7.7.7.4.0.u.&.k.5 > H J H ! /.R * a ! R J W (.{.",
"Y < , R _./._.W + 2 '._./.R Y W `.Y 8 5.7.7.7.4.7.7.7.4.7.7.2.U././.j X v U G K K h % /.`.! Y R W /.",
"_.n @ ; 1 ; < ; . c Q Q R J U R /.W o.4.7.7.7.7.4.7.7.7.8.4.<.P././.U % $ * % % % . j }.'./.R G J /.",
"'.v @ h j c b z % c R U H U W ! ~ H ..4.4.4.8.7.7.7.7.7.7.7.<.C U K S $ 1 f 3 a h ; a ].{._./.W R /.",
"S $ h /._.'.}.W 1 ; R ^.U Y J G n f 6 5.7.4.7.8.8.8.4.7.7.7.<.M S D , * /.W G H Y n $ S R K R W _./.",
"< @ n Y _./././.S & l Q Q D H Y h X q 2.7.7.7.8.8.7.7.7.4.4.r.F U v X D W H G V Y /.p * H U K K R _.",
"X j J H U U Y Q /.h & K /.G n R h $ x $.6.7.7.4.8.7.7.8.8.9.k.G H , 1 /.U H R W ! _.H $ j K R H U J ",
"3 ! R K K n v S ! H @ & < * * * + x W C &.w.4.4.7.4.4.4.' 7 - $ % X v ! ~ ! `.W ! ~ ~ f @ * * * ; & ",
", H Y /.R n v D R D @ , x z j h ; f R J U.n.g.u.6.7.5.8 m g 3 h t X j /.~ ! `.W /.! Y 1 * z h g z a ",
"$ 3 U Y U D S J W p & J W `._._.S $ S /./.Q /.P.3.7.;.m /.A D /.Y 1 * W `.~ _.~ ~ _.n X c U R /./.Q ",
"c $ S U U S A D x X g S Y `.! /./.a 1 /./.R Q Y.w.7.<.P.J : D R H n % c _._.(._._.W * a W J G /.`.`.",
"R 1 3 U W U b S % & D H Y /.Q W /.Y ; v Y S A v.0.7.<.z.I A U /.Q J j * K W /.~ R g $ W /.Q K W ~ ! ",
"Q v $ < ; ; & $ + h v S H W _./././.f @ : & 0 } 4.4.6.<.p.M.L /.`.~ R * @ * , , < . g _.Q R U G R ~ ",
"U j + f h g h g $ x G A D W ! /./.U & $ t u -.4.8.8.7.7.7.4.t.H.`.Y S + 1 g p j z * * J Q U R R Q Y ",
"b $ g U Q (./.R 1 % U J H G J Y R p   i y.9.8.7.7.8.5.<.6.7.7.w.V.T < ; Q ~ ~ (._.v @ b `.`.`.}.'.U ",
"< $ K K W R H W G % z ! W R H D x + 6 3.8.7.6.<.6.8.>.d O.1.4.4.9.@.o n (.~ ~ R W R p , W Q R ]._.K ",
". v _./.~ W G K R c * H R U n h < . o.6.7.w.*.C.5.8.] r H c.i.6.7.' r H G /.T.g.%.W J X g J S U ! n ",
"< /.W _._.~ W H G R , % * * % % . f v.u.s.I.Y I.q.7.>.= , * = 8 _ 7 H K K ~ *.7.t.Q.W 3 X * % * ; $ ",
"* K _.~ `.`.W ~ W V % a z h h f $ 1 K E E.Q ^.G.q.8.] = j j g c k $ b W ~ R.3.7.a.`.~ 1 $ g j a f f ",
"$ g ~ (.'.`.`.].Q 1 * /./.U /.! j X f U ! R /.!.q.7.] m P.c.K.W.R a ; Y ! R V.~.S.{.n + H (.(.Y U Q ",
"j % n K J R _./.v o S _.W J n H z ; ; H W Y W m.6.7.<.C.x.l.F.m.m.P % j ! T.A.(._.R % 3 ~ Q (.R G ! ",
"U 1 , G J K W S % 3 _.'./.S S Q Y H % h D n n j.6.7.6.V.U U ^.! K.b.e # Z b.D.K n 1 o K (.~ G G J ^.",
"n b $ * ; ; * $ . J {.{.~ J /./.U Y 3 X $ $ % ) 6.8.8.0.j.U ! _.~ W.v.9 6 4 % * $ . j '.R x j K W Q ",
"K z $ h c j h f . z ].{.^.Q _.Q W W 1 * h g y >.7.4.8.7.t.U./././._.H $ ; 3 p a p & g Q S Y H v v H ",
"n $ f /._._._.! , , W '._._.`.U W n + D ! K f.8.8.;.;.7.6.M.Q._.`./.3 ; U J /.(./.v $ c U ! Y n A S ",
"1 @ H U Y /./.U z & g H R ~ _./.Y % 3 K Y J.e.7.6...8 4.8.0.Z.(._.D @ S /.R R /._.Q 3 < W (.^.Q W W ",
"  f H S G ! Q R G p + l S U Q ~ j + G K G %.8.7.p.L.t / 6.8.q.M.G % 3 /./.U K R ~ /.H & v R Q W K v ",
"% S b S H ~ R R R H $ $ & * , ; X j /.Y l.<.7.9.C.'.J O / 4.7.6.) O D (./.Q U U /./._.3 o % * < % + ",
"% c g S U ~ /.Q Y v $ 3 z g j h * f ! Q.d.8.7.i.T.(.S X k #.6.7.4.[ M Y /./.'.'._.~ v $ & h h j z f ",
"& f S S Y /._._.Q < & W _.Q _.'.c X n Q.s.8.0.m.W K $ f ~ T.B.5.8.4.#.P ! _.{./.~ R <   K `.! W W U ",
"f & l v G R ! _.n . z G Q U Q _.Y < 1 R I.=.N.R W f $ W /./.).S.w.4.{ k /._.`._./.b . a ]._.J H U Y ",
"c & ; v A S R U * < A g S U U ^./.J & g Q Y Y R b X f /._.~ Q R x.*.i + S R /.`.U 3 X Y |.! R R S v ",
"S l . $ % ; ; $ . G K S U ^./.U H Q f $ 1 1 < < X $ H W /.U H K R G S $ $ , 1 < * X z U b H /./.U S "
};
