/* XPM */
static char *N_enemy2[] = {
/* columns rows colors chars-per-pixel */
"50 50 236 2 ",
"   c #151614",
".  c #1B1D1B",
"X  c #301C1B",
"o  c #1E201E",
"O  c #22241E",
"+  c #362A1D",
"@  c #232523",
"#  c #262727",
"$  c #262826",
"%  c #2B2D2B",
"&  c #362726",
"*  c #2E312E",
"=  c #34332D",
"-  c #2F3230",
";  c #323532",
":  c #363935",
">  c #383A36",
",  c #3A3D39",
"<  c #491D1B",
"1  c #571918",
"2  c #671918",
"3  c #791817",
"4  c #63201E",
"5  c #422624",
"6  c #5D2725",
"7  c #463734",
"8  c #5C3E3A",
"9  c #702D2A",
"0  c #3E413D",
"q  c #4B4B17",
"w  c #6C6B1B",
"e  c #4F4B32",
"r  c #41443C",
"t  c #6B413B",
"y  c #72722B",
"u  c #424541",
"i  c #464945",
"p  c #494C47",
"a  c #474A49",
"s  c #4B4E4A",
"d  c #564C48",
"f  c #4D514D",
"g  c #51544E",
"h  c #5B5E4B",
"j  c #535651",
"k  c #555A54",
"l  c #595D56",
"z  c #575B58",
"x  c #5A5E59",
"c  c #684945",
"v  c #6E514B",
"b  c #795B56",
"n  c #5B6057",
"m  c #5D625C",
"M  c #66675A",
"N  c #61655F",
"B  c #736B55",
"V  c #5F6561",
"C  c #626761",
"Z  c #656A63",
"A  c #686D66",
"S  c #6A6F69",
"D  c #796D67",
"F  c #6D7163",
"G  c #6D726C",
"H  c #71756F",
"J  c #787769",
"K  c #6C7170",
"L  c #727771",
"P  c #7F7670",
"I  c #757A74",
"U  c #797D76",
"Y  c #777D78",
"T  c #797E78",
"R  c #941615",
"E  c #A40E0D",
"W  c #B90B0B",
"Q  c #A91413",
"!  c #B41615",
"~  c #AC211F",
"^  c #8F2F2C",
"/  c #942B28",
"(  c #A22C29",
")  c #B62926",
"_  c #A1312C",
"`  c #AA3A36",
"'  c #B93B38",
"]  c #C70C0C",
"[  c #D40909",
"{  c #DC0909",
"}  c #C6100F",
"|  c #DD1413",
" . c #D51917",
".. c #DD1B1A",
"X. c #EC0707",
"o. c #E50B0B",
"O. c #EC0B0B",
"+. c #F10707",
"@. c #F10808",
"#. c #E8100F",
"$. c #E41413",
"%. c #E61413",
"&. c #D3201E",
"*. c #C72927",
"=. c #D72826",
"-. c #C53533",
";. c #A6413E",
":. c #B2413F",
">. c #934B46",
",. c #89534E",
"<. c #8A5954",
"1. c #975A56",
"2. c #AB4743",
"3. c #B34B48",
"4. c #A9524E",
"5. c #A45B57",
"6. c #B25651",
"7. c #98625D",
"8. c #8A6B66",
"9. c #986B66",
"0. c #86736D",
"q. c #857A75",
"w. c #C14240",
"e. c #7E8261",
"r. c #7B8174",
"t. c #7D827C",
"y. c #91901D",
"u. c #AAA713",
"i. c #B9B716",
"p. c #8A8926",
"a. c #999822",
"s. c #8A8B38",
"d. c #9A9A3A",
"f. c #A09F22",
"g. c #ACAB2A",
"h. c #B0AF2D",
"j. c #B9B828",
"k. c #A6A634",
"l. c #ABAB3D",
"z. c #B2B238",
"x. c #C1BE09",
"c. c #C1BF1D",
"v. c #C0BF27",
"b. c #C0BF34",
"n. c #CAC70D",
"m. c #D1CD06",
"M. c #D2CE0C",
"N. c #DAD607",
"B. c #D6D20B",
"V. c #D9D50B",
"C. c #C8C516",
"Z. c #CDCA15",
"A. c #C5C21C",
"S. c #D1CE13",
"D. c #D2CE1A",
"F. c #D9D613",
"G. c #D8D515",
"H. c #D5D11C",
"J. c #C7C523",
"K. c #D9D626",
"L. c #CFCD32",
"P. c #E1DE32",
"I. c #8A8C41",
"U. c #97994A",
"Y. c #878A5A",
"T. c #8F9151",
"R. c #979A56",
"E. c #9FA14E",
"W. c #A3A449",
"Q. c #B3B34A",
"!. c #A2A455",
"~. c #B2B355",
"^. c #888A67",
"/. c #81857E",
"(. c #86887B",
"). c #929673",
"_. c #A6A86B",
"`. c #BABA69",
"'. c #D8D644",
"]. c #D3D24E",
"[. c #E2DF50",
"{. c #E6E349",
"}. c #E5E257",
"|. c #CECC6F",
" X c #DAD865",
".X c #E7E56F",
"XX c #7F8580",
"oX c #818680",
"OX c #858A83",
"+X c #898E86",
"@X c #868788",
"#X c #8A8E89",
"$X c #8C9186",
"%X c #8C918B",
"&X c #919689",
"*X c #979A97",
"=X c #9EA29E",
"-X c #A9AC99",
";X c #A3A5A3",
":X c #A6A9A5",
">X c #ADADA5",
",X c #A9ACAA",
"<X c #AFB1AA",
"1X c #B6B7A7",
"2X c #B7B9B7",
"3X c #BDC0BD",
"4X c #D1D18E",
"5X c #EBE98A",
"6X c #EAE995",
"7X c #D0D1A5",
"8X c #C4C6BC",
"9X c #DFE0B9",
"0X c #E7E7AC",
"qX c #F5F3BA",
"wX c #C3C4C3",
"eX c #C7C9C5",
"rX c #CACCCA",
"tX c #CFD1CE",
"yX c #D3D4CB",
"uX c #D3D4D3",
"iX c #D6D8D7",
"pX c #DADBDA",
"aX c #DFE0DF",
"sX c #EAEAC9",
"dX c #F5F4C7",
"fX c #F3F2CC",
"gX c #ECECD2",
"hX c #DEDFE1",
"jX c #E4E4E4",
"kX c #E8E9E7",
"lX c #ECECEC",
"zX c #EFEFEF",
"xX c #F4F4E8",
"cX c #F4F4F4",
"vX c #F9F9F6",
"bX c #FCFCFC",
/* pixels */
"G p @ k x x s u q n.V.G.j.!.Y.J F U.A.B.B.u.N x r + s.g.Z.B.k.M Y.d.v.M.N.N.u.r p e a.M.B.I.U r.t.U ",
"m @ p OXoXoXU L p.B.z.L.G.V.S.v.v.S.G..X}.S.Q.~.v.n.m.F.A.C.Z.k.Z.N.x.j.Q.v.S.s.l.c.m.C.B.j.r.G t.U ",
", # I oXU oXU /.b.x.).lXdX5X].D.D.}.dXbXfXP.N.B.Z.L..XdX1Xd.N.N.J.s.^.uXiXW.B.M.M.K.5X8XQ.B.T.I L S ",
"  k t.oXoXT T ).H.u.<XbXhXvXvXyXsXvXuX,XcX0Xj.Q.3XxXvXzXlX_.M.c.^.*XzXcXbX7XS.c.`.gXbXbX4XB.h.r.L z ",
"% I t./.OXt.T Y.B.l.pXuXu x 2XcXlX2X@XU tXcX<XiXbXpXoX/.bX$Xq B rXvXpX#XiXxX-X1XzXcXrXbX2Xi.i.+ * @ ",
"% G /.t.S S U T.S.~.cX2Xg f f t.A u G T =XcXvXbX3Xt.u 0 lX3Xt.jXcX;XC L =XvXxXbXkX;X+XkXyXh.m.e u u ",
"$ i T L A C Y R.m.~.vXwX#X+Xt.L g @ m T T <XzX3XOXA $ i pXbXbXkX*X: % L t.wXlXtX*XOXC 2XcX~.V.R.Y U ",
"u @ m L A Z U R.m.|.bX:Xx Z XXG Z 4 / b A P @Xt.U u $ I ,XjXeX%XU l $ r A U OX%Xt.I % *XcX_.M.Q.H t.",
"m ; % m V L Y Y.m. XvX#Xm Z T 7.*.o.X.*.b Y U L k . z OXI G S G I U s @ m S L Y Y f # ;XbX).x.J.r.G ",
"N i   o # - : p.B.[.bX:XH L g ` @.+.+.W & = ; = @ % L G G S S L U H 1.2 * - % = = . s ;XbX<Xg.S.^.L ",
"f : . i s f y m.m.].vX3X@XT h ) @.O.E 6 j s p i , % Z Z U t.Y U L <.| { R s s i f % u %XcXrXW.V.T.Y ",
"r . > U @XXXR.V.a.^.vX3XT U D *.@.o.1 x Y H Z G Z % i T t.I t.t.Z ,.o.+.%.9.oXoXY k @ I cXrX!.V.R.A ",
": o g m r.L Y.M. XiXbXrXt.T T -.@.X./ L U m g v >.^ 1 M t.L L G A l Q +.+.2.t.OXY S = s cXeXI.V.U.U ",
". j L m t.OX(.A.P.xXbXkX/.S H ;.O.+...1.OXD ;. .O.X.{ ( q.r.k f m = R X.+.' /.oXT T N s lXwXs.V.!.K ",
"; I r.I +XOXt.z.F.0X>X*X, # # & W @.@.%.-.*.O.+.@.@.+.X.) / 9 3 R Q o.+.+.2.L G U T S L cX;Xy B.w # ",
"* H oXoXt.t.Y U.F.4X, r s p u 0 6 ] @.@.+.X.@.+.@.@.+.+.+.X.X.X.X.+.+.+. .8 k G t.T T wXvX$Xy.B.p.0 ",
"$ s t.r.t.t.XXT.B. XC H S m H I k < ! @.+.+.+.+.+.+.+.+.+.+.+.+.+.X.{ ) t d n U t.t.3XvXeXr.v.V.D.R.",
"j # n r.XX#X+X).Z..X<XOXF n S t.t.0 6 %.+.+.X.+.@.+.X.@.+.+.| *.` 2.1 = M S C U t.;XcXpX+X%X~.A.B.~.",
"K ; - r.XXt.t.^.n.}.eX(.t.I H L +XH 3 o.+.+.+.+.X.X.+.+.+.+.&.0.t.t.a . x G C G t.aXzX:X*XlXrXE.B.!.",
"XXm o % 0 - - e i.}.eXr.L A G H t.I _ X.X.@.@.+.+.+.+.+.+.+.| 8.XXt.G # @ % $ % =XbXeX2XjXbXiXU.V.W.",
"+Xk o i f j z h i.P.yXI Z G L t.Y C / X.X.+.X.@.X.+.+.+.@.+.$.b G S m @ , u , C zXvXkXbXbXbXeXE.B.W.",
"m $ i XXXX+X%Xr.i.P.gXOXG L S N n u 1 o.+.+.+.@.+.+.+.X.X.+.| c m m ; % t.I m $XlXvXiX,XrXbX;Xk.B.R.",
": o m K oXt.XXt.h.K.fX*XL C Z H f o &  .+.+.+.@.@.@.+.+.+.+.*.M G k . V I C N C %X:Xj ; eXcX+Xh.S.).",
"o f S V G G L r.z.G.fX<Xt.C l L i @ g _ X.X.+.+.@.+.+.+.+.O.>.C Z ; : t.G Z L L t.t.V u jXpX^.C.j.F ",
": r.I S A n k n k.G.dX,X; % $ % . j U b ' ..@.@.+.+.X.X.W 3 & @ # . k U U Y OXL Y Y L *XbX@Xw m.i.y ",
"- V H t.H n n V W.V.qXrXk f f s * u L Z P 1.2.) O.+.o.3 d i 0 a 0 . f t.U t.OXU t.t.L wXcXL a.m.N.n.",
"$ 0 S L K m n F l.N.6XkXoXoXoXoXN # N t.t.I t.9...@.[ c XXn m t.G > % L OXt.t.t.Y XXXXkXpXL U.].S.B.",
"g $ n S K m n I.B.N..XlX%XoXU t.t., > Y t.L q.q.$.@.| 0.A * m L A n $ f /./././.t.OXrXvX:XZ =XxX'.B.",
"H : , L I G n d.V.J..XbX;Xt.Y L T H * k H l n <.$.+.| ,.J n G /.I S f % S I t.t.I 2XbXiX:X2XjXvX'.S.",
"I k @ - * % $ w V.6XzXbXeXt.XXt./.t.u @ = $ 5 Q @.@.O.| =.;.D t.OXt.H * @ % % = s hXbXcXvXbXbXxXK.Z.",
"L f @ 0 f p i p.F.qXbXbXcX&Xr.t.XXG % @ 7 9 ] X.@.@.@.+.+.O.&.5.OXG N @ : u 0 s x ;XuXuX3X2XcXsXH.v.",
"k @ u G r.t.t.z.G.sXcXhXkX@XZ G L 0   9 *.#.X.X.@.@.o.| O.@.@.$.3.D ; % I t.Y /.oXx : C t.2XbX7XB.g.",
"- @ G G L L Z j.D.sXjX#X+XI C m g . 1 ..+.+.O.| O.+.} t ^ ..O.X.O./ X x t.t.U L I H , ; Y iXcX`.B.d.",
"  z t.t.t.L M j.K.gXpXH H G l f * . _ O.@.$.' 4.%.+.W 7 C <.-.O.@.W 7 C N /.0.;.` U Z . x cXuXl.S.y ",
"; t.U t./.t.I j.D.gXtX> % * % $ . r <.-.-.7.L 7.#.+.} X ; % & 3 E 2 C G G T ' +.*.q.t., L vX+Xu.M.p.",
"% G t.t.OXoXY j.H.gXuXf f a i r @ : G J /.U t.7.#.+.} & s p i f d @ k I T q...+.=.OXI u 3XlXJ i.V.B.",
"@ i t.t.+XOXOXz.G.fXhX+Xt.G t.Y f . 0 G t.L XX9.#.@.W c 0.<.8.q.L 0 - G Y I 3.w.6.#Xx j cXrX=X4XD.B.",
"f # x S S L /.W.V.0XlX+XL A m Z g * * A I G Y 1.#.@.| 4.<.,.7.5.1.D # p Y 0.1./.+XL % *XbXtXkXxXL.Z.",
"G : * m A G L U.B.0XcX*Xt.N m I H C $ i m n n >.O.+.O.3.S G r.Y 8.1.6 & b 1.<.G x : % uXbXbXbXgXK.A.",
"m k @ % - % % w m.6XcX=XU S t.r.G G 0 . @ @ % R +.+.@.$.,.S Y XXt.q.<.4 1 & # % $   j 2XrXrXbX9XS.v.",
"S f @ a j f a y m..XvX:XU U OXU T I ; % p a 8 ] X.@.+.@.*.0.t.XXt.XXZ @ - , u u 0 # i Y C eXcX_.B.k.",
"n $ u t.XXXXXX^.Z.}.vX<Xt./.oXG T k o N U S 2.X.+.[ [ @.@.2.T oXOXt., * G A r.t.t.k @ g %XcXrXI.B.d.",
"; o Z K L XXXXJ i.P.xX=XH Y oXt.H $ , S H 8. .+.O./ 3 o.+.#.4.q.XXV o m t.L L t.t.r., - 3XbX,XW.B.U.",
"  u V m V t.U L k.G.qX2Xn G U t.s o C S N ` O.@.&.8.7 E X.@.#.3.N % , t.t.H A L t.t.C g kXpXt.j.Z.y ",
"$ n n n C t.L L T.B.5XiX0 % * * . s XXG ,.| @.O.4.+XA X E o.X.o.R X N /.t.Y G L oXt.t.2XcXL y V.u.O ",
"% j i m G t.t.L e.C.{.xX;Xf s s % u Y T ' @.@.*.q.t.m o d ) O.@.@.! c H r.t.+X+XoXY +XlXiXM i.N.d.0 ",
"$ 0 V m G t.oXoXI f.S.0XbX:X/.+Xj . x q.-.@.| 1.Y A # u t.0.3.%.+.@.~ D U XX%Xt.U t.eXcX,XR.V.S.^.S ",
"i $ s k C G t./.l q n.L.:Xt.U t.H : : U 7.' 4.L I u @ I T q.(.5...X.! d t.oXOX/.t.t.hXrX%XL.V.d.G H ",
"g % % k n m r.A $ ; k.a.M S K r.t.Z # a r.L K L n o u t.XXr.r.L ,.:.8 O x P Y OXG u x OX*X!.E.J m k ",
"N p o O O * - @ o V F M G r.r.G Z r.i @ : ; ; ; o o V Y t.K Z S L N n $ $ = : ; % . p S n M t.t.G m "
};
