/* XPM */
static char *P_player1[] = {
/* columns rows colors chars-per-pixel */
"50 50 151 2 ",
"   c #141513",
".  c #181917",
"X  c #1C1D1B",
"o  c #1F201E",
"O  c #20221F",
"+  c #2C201E",
"@  c #232523",
"#  c #272826",
"$  c #2A2A27",
"%  c #2B2D2B",
"&  c #2F3221",
"*  c #2E302E",
"=  c #3A3E24",
"-  c #30322F",
";  c #323532",
":  c #363936",
">  c #393C37",
",  c #3A3D3A",
"<  c #752B28",
"1  c #3E412A",
"2  c #3E413D",
"3  c #40433F",
"4  c #5C642A",
"5  c #5A6037",
"6  c #737D28",
"7  c #3F4240",
"8  c #434542",
"9  c #464945",
"0  c #484C46",
"q  c #4B4E4A",
"w  c #4C5146",
"e  c #4D514C",
"r  c #50544E",
"t  c #525551",
"y  c #565A54",
"u  c #595D56",
"i  c #5A5E59",
"p  c #695651",
"a  c #5B6057",
"s  c #5D625B",
"d  c #61655F",
"f  c #626761",
"g  c #656A63",
"h  c #686D67",
"j  c #6A6F68",
"k  c #6D726C",
"l  c #767D67",
"z  c #70756F",
"x  c #6F7471",
"c  c #727671",
"v  c #757A74",
"b  c #787D77",
"n  c #777E78",
"m  c #7A7E79",
"M  c #A50707",
"N  c #B40B09",
"B  c #B01F1D",
"V  c #882D16",
"C  c #A23D35",
"Z  c #B23633",
"A  c #C40C0A",
"S  c #DD0807",
"D  c #DB140D",
"F  c #E40303",
"G  c #E20D09",
"H  c #E03B0C",
"J  c #C62725",
"K  c #E04A0F",
"L  c #974F49",
"P  c #B75546",
"I  c #A15955",
"U  c #8B695D",
"Y  c #7C8374",
"T  c #7D827C",
"R  c #A1B02A",
"E  c #A1AF34",
"W  c #AFBF32",
"Q  c #DC8719",
"!  c #B6C729",
"~  c #BBCB3D",
"^  c #D8CB22",
"/  c #CCD030",
"(  c #C7D837",
")  c #C8DB31",
"_  c #C2D43A",
"`  c #CEE22C",
"'  c #D7EB27",
"]  c #D8ED27",
"[  c #D2E62B",
"{  c #D6EB29",
"}  c #D8EC28",
"|  c #D9EC33",
" . c #989D44",
".. c #818A5A",
"X. c #989A56",
"o. c #9AA64F",
"O. c #9BA65C",
"+. c #AEBD42",
"@. c #AAB74C",
"#. c #BBB541",
"$. c #B0BD5D",
"%. c #8B936C",
"&. c #959F61",
"*. c #90986F",
"=. c #818776",
"-. c #80857F",
";. c #91987C",
":. c #BFCF42",
">. c #B1C05F",
",. c #BAC475",
"<. c #DCEF40",
"1. c #828781",
"2. c #848A83",
"3. c #888E87",
"4. c #8A8E88",
"5. c #899086",
"6. c #8C928B",
"7. c #90948F",
"8. c #929591",
"9. c #949A93",
"0. c #989B97",
"q. c #9A9D99",
"w. c #9EA29D",
"e. c #A3A5A3",
"r. c #A6A9A5",
"t. c #AAABA9",
"y. c #AEB1AE",
"u. c #B3B6B2",
"i. c #B6B9B5",
"p. c #BCBEBB",
"a. c #BBC485",
"s. c #BFC2B6",
"d. c #BEC1BE",
"f. c #DFE7A2",
"g. c #F1F7B8",
"h. c #F3F9BF",
"j. c #C2C5C2",
"k. c #C6C8C6",
"l. c #CACBCA",
"z. c #CFD0CE",
"x. c #D0D1CF",
"c. c #D3D4D2",
"v. c #DADCDA",
"b. c #E0E1DF",
"n. c #E4E5E4",
"m. c #EBECEB",
"M. c #EFF0EF",
"N. c #F4F4F4",
"B. c #F7F8F7",
"V. c #FDFEF5",
"C. c #FEFEFE",
/* pixels */
"k 0 @ y i y q 9 O q T -.T -.b j k c ; ; s i i d 3 X e f j k s f k c f O 8 e ; > r ; 7 T g h v m T v ",
"s @ 0 2.1.1.m v 7 * c 1.-.-.v n m y X g -.Y 2.1.g @ ; u s f h z T 2.7 $ m g w s Y a # d v v v z T m ",
", @ n 1.n 1.m 1.k # e T n v T 1.k @ $ f g z v v g q X t j h c T 1.f X y v i y g n n : * f k k n v k ",
"  y T 1.2.1.U 1.n 7 O s h x v n 0 @ s j j j c n k k , ; z c c v k % ; k k j g d v v e o r k g c z t ",
"% n T T 2.T n n k a % O # * % * . 0 T v c j n 1.n k r o % * % % % X i f c m v z f k j 2 @ ; # # * @ ",
"% k 1.T j j n x k a @ > r r 7 2 @ , k T m g k 1.v k 9 o 8 2 > - : o q v v v T 2.T T b : $ 0 2 , 9 8 ",
"@ 9 T x h f n n c : * T 6.5.T v t o s -.v s x -.-.j @ 2 z j k k g ; % v m T -.3.2.3.s @ g T 2.2.n v ",
"7 O s x j f v T d O x 1.a g 1.k j ; * f g k c T Y 3 # v k d g n m i @ 2 j c m 2.T n % 9 c s m T z T ",
"s ; * s f v v k % 7 9.a s g T Y v f @ 2 g m m v y X i 2.c f f c v m e @ d j v m m e @ v c 9 s v b k ",
"f 9   o # * * # X k T x z z r s c m 9 X % % ; * @ % c j k j j c m c k % @ ; * * ; X q P C 0 g T m v ",
"e : o 7 q e e 7 # s 5.7.2.T a f T T , # e e q 0 , % h g b T n v c k g @ , q q 0 q % < G B g n T n m ",
"2 . > T 2.-.T Y 2 # g T T n x k m i @ i m k g j g $ 9 m T n T T g j , % v T 1.1.n p N F Z =.m j k j ",
": o r s Y c v x y O 2 d v T T Y f @ , c v s r a c i @ d T z k k g i o 0 g k T 2.T L S S I n f k z m ",
"o y x s T 2.T n T e o s x h x k 9 @ m T 1.c v 1.u.k.t.q.0.Y u w d % : g v T -.2.v J F A p j g v T k ",
"* Y T v 3.2.T n T x * # * # # % X q 1.T m 2.j.m.C.C.C.C.v.x % O @ o k -.T m z k U D F N @ * - * - @ ",
"% z T 1.T T T f g f # > q 9 7 7 # 8 j k T k.B.C.C.C.C.C.C.c.g q 0 @ i Y g 0 t z X.H G M $ e q r e 3 ",
"# q T T T T T k s ; % c k s c c t @ s 2.p.B.C.C.C.C.C.C.C.C.c.T x , @ u u 0 a Y #.H K V a v T 2.-.m ",
"t # s Y 2.5.5.T 8 . g 3.k u j T T 3 ; 2.m.C.C.C.C.C.C.C.C.C.N.7.f f O ; f h d %./ Q ^  .n x f T -.6.",
"x ; ; z 2.T 1.v O > 4.2.Y c c c 4.x O T B.C.C.C.C.C.C.C.C.C.C.p.T T q X u x f +.{ { { >.1.T k v v -.",
"1.a o * ; * ; * . t v n c j k c m v , f N.C.C.C.C.C.C.C.C.C.C.k.-.T k # O % 4 ` { { { $.5.T v d j Y ",
"3.t O 9 e t y e @ t c z g k v Y m g % , l.C.C.C.C.C.C.C.C.C.C.r.j j s @ : 9 R ] { { ' >.5.T T v c T ",
"s # 0 -.1.3.6.m : * z n k c j d i 8 X r -.c.B.C.C.C.C.C.C.C.v.k s s ; % T &.[ { { { [ X.x j c v 1.T ",
"; O s x 1.T -.T s $ e v n d f c q X - d s T i.v.B.C.C.N.m.x.4.g k y X d v :.{ { { { ` 5 f k h k c 2.",
"X e h d z k k v T q @ k T f i c 0 @ t u z k k 4.n.C.M.4.c v k g g ; : T l ! { { { { ! & q k x f k g ",
": n v k h a t s n g @ # ; % # % X t b g v z f 4.m.C.n.8 @ % % @ + . y Y O.` { { { { @.8 o % * % % $ ",
"; f c T k a a d c d o ; t e q q * 8 c h v z z 6.m.C.n.q 0 0 , q 3 . 5 =.( ' { { { ` ..: % e 0 0 e 7 ",
"# , k k z s s h Y , % h v 2.1.1.p # d m m b 0.c.C.C.N.l.d.v f m h 3 1 +.' { { { } :.a X r k c T T v ",
"e # s k z s s s e . 9 s k 2.m T T 7 : T 9.y.m.C.C.C.C.C.C.c.8.v Y W ! ' ' ' { { } o.* 7 c h f T 2.2.",
"x : , c x k a a # # s g k T n c T x ; 0.m.C.C.C.C.C.B.C.C.C.m.j.;.~ ) { { { { { _ 5 @ c -.v j v m T ",
"v y @ * * * % @ o 0 u s h n 1.T T T 3.n.C.C.C.B.C.C.n.u.n.C.C.C.b.s.,.[ ' ' ' [ 6 . 0 1.n c k f c T ",
"c q O 8 w 0 0 9 @ r d u d c n T T 6.b.C.C.C.n.p.N.C.v.-.9.m.C.C.C.C.g.| [ ~ ( [ E % * h v k c c v c ",
"y # 8 k n T T x : $ k j g g h x x w.B.C.B.k.1.q.B.C.x.i s 0.z.N.C.C.V.g.a.=.Y %.*.y o u 2.2.2.8.3.k ",
"* @ j j c c g c g @ t m v c f d r b m.N.u.z g -.M.C.c.s t j v w.f.h.C.N.e.T n c v x 2 * c c n 3.-.j ",
". u -.T T c g j c t $ g z k u 0 - % 8.4.v 1.c 8.M.C.v.t g j x z ~ <.f.p.k T v g h n g X 0 j s k m u ",
"; -.n -.-.T c g g z - # % % % # . 3 k z T 1.z 6.m.C.n.8 * % * * 6 ! *.c h T x n n T n 2 X % # % - @ ",
"% j -.m 2.1.m m n i @ 2 t 0 0 3 @ > j b T m m 6.m.C.N.v q q 9 e w = y b T T T 3.6.1.n ; # 9 0 3 8 3 ",
"@ 9 T -.3.2.2.4.v : % T T k T m q X 8 k m c 1.d.C.C.C.n.w.j m T v 7 - x T x 1.3.5.6.s o g T -.z k n ",
"q # i j j x 1.1.y o s -.c j s f r * * g b z w.N.C.C.C.C.z.c m 1.-.k % 7 n T T 1.2.k # > m m -.c d n ",
"j : * s g j v s # , 2.3.T d s v c f # 9 i c v.C.B.j.m.C.M.4.m m b n 7 O s c x k a : X k T T d d h n ",
"s i @ % * * % @ . j 6.4.m j T Y k z 2 X * t.C.C.l.s z.C.C.t.b T U 2.j # O # # % # . q 3.z r w k n n ",
"h w @ q t q 0 9 . e 5.6.Y v 2.v m v ; % 8.M.C.N.T % t.C.C.c.2.T T 1.g @ * > 3 3 2 # 9 n s z g y a f ",
"i # 8 T 2.2.T n - * v 5.-.1.2.z m y o 7.N.C.C.j.m % c B.C.B.i.2.2.T , * k h m -.T t # r k m z a a a ",
"; @ f k k T -.k e @ 0 g c m 1.T x % g m.C.C.z.4.2.t 9 b.C.C.M.w.T f o a T c c T -.n > * v T Y n n z ",
"  7 h s d n n c g 2 X e s k b b e f b.C.C.v.7.c 1.m , m N.C.C.z.v $ , T T c j z T T h # y v v v j u ",
"% a y a f T c c c g @ # $ % * % 7 x.C.C.c.8.2.v m 4.h # 1.M.C.B.e.$ s 1.T n k z T T T , X $ % * % o ",
"# t q d k m T v c y @ , e 9 q q q l.B.v.0.m m v m T i X r y.B.C.k.; q x Y T 3.3.T T u @ % q 0 q e 2 ",
"# 7 s s c T 1.2.c : # v 2.m 1.2.y e 8.8.1.m j v m j # 8 T T u.k.1.2 % x n -.6.T m c ;   j 2.m c v k ",
"9 @ e y f k m 1.i . e f v k v 1.x ; : v m m v c v 8 O v T T 2.2.f f # q T 2.2.2.T u . 8 4.1.j g k x ",
"r % & y a s v j # ; s 7 s z z Y T f # q n x k x a o 7 T 1.T Y x k k 8 @ a v m 2.k , o x 9.Y x x s u ",
"s 0 o @ @ % * @ o f j s k Y T k f T 7 @ : : ; ; o o f T T h g j v f s @ # * : ; % X q k u f -.T k a "
};
