/* XPM */
static char *P_player[] = {
/* columns rows colors chars-per-pixel */
"50 50 83 1 ",
"  c #020302",
". c #0B0C0B",
"X c #141513",
"o c #181917",
"O c #1C1D1B",
"+ c #1F201E",
"@ c #20221F",
"# c #232523",
"$ c #272826",
"% c #282A27",
"& c #2B2D2B",
"* c #2E302E",
"= c #30322F",
"- c #323532",
"; c #373936",
": c #383B37",
"> c #3A3D3A",
", c #3E413D",
"< c #40433F",
"1 c #434542",
"2 c #464945",
"3 c #484C47",
"4 c #4B4E4A",
"5 c #4B5046",
"6 c #4D514C",
"7 c #50544E",
"8 c #525651",
"9 c #565A54",
"0 c #595D57",
"q c #5A5E59",
"w c #5B6057",
"e c #5D625C",
"r c #61655F",
"t c #626661",
"y c #656A63",
"u c #686D67",
"i c #6A6F68",
"p c #6D726C",
"a c #70756F",
"s c #727670",
"d c #757A74",
"f c #787D77",
"g c #7A7E78",
"h c #788177",
"j c #7D827C",
"k c #80857F",
"l c #82897F",
"z c #828781",
"x c #848A83",
"c c #888E86",
"v c #8A8E88",
"b c #899086",
"n c #8C928B",
"m c #90958F",
"M c #929591",
"N c #949A93",
"B c #989B97",
"V c #9A9D99",
"C c #9EA19D",
"Z c #A3A5A2",
"A c #A6A9A5",
"S c #AAABA9",
"D c #AEB1AE",
"F c #B3B5B2",
"G c #B6B9B5",
"H c #BCBEBB",
"J c #BFC2BE",
"K c #C0C2BF",
"L c #C2C5C2",
"P c #C6C8C6",
"I c #CACAC9",
"U c #CFD0CE",
"Y c #D0D1CF",
"T c #D3D4D2",
"R c #D8D8D7",
"E c #DADBDA",
"W c #E0E1DF",
"Q c #E4E4E4",
"! c #EBECEB",
"~ c #EFF0EF",
"^ c #F4F4F3",
"/ c #F7F8F7",
"( c #FEFEFE",
/* pixels */
"p3#9q941@6jkgzfipd--eqqr,+6tiietpst+16-;6-,ktudfjd",
"e#3xzzff,=dzjzddg9Oyjjxzr$-0rtisjz,&gy5ehe$rdddajh",
":#dzfzfzp#4jgdjzi$%tyaddt3+8iishzt+0f09uff:&tpaddi",
"o9kzzggzd,#eiadg3#eiptdfaa;-aadds&*ipittda8@8atds9",
"&fjzckgspq&#$***O3jdsifkdp8+&*&&&O0yafsatpp,$=$$&$",
"&izguidspq#:88,,#:pjfuakhp1O<,:-;+3ddfjxjjf-%3,:11",
"#3gdutffs;&jbcjd7+ekdqakli$,syipt-&dgjkcxce$tjxxff",
"1#qsutdzr@slwuksu-*tuidjf<$dpruhfq$,idfcjh&1defjsg",
"q-=eysdi&>Bweihddt#,tfgsqOqzdrtsff6$eidff6$sd1rdfp",
"t1X+$&-$+plssa8esj1+&=-=@&aiiiidfap&$=***+6de2tjhd",
"6;O24742$exncfwtjj:%7743:&uufjfdaat$>4426&2p5ygkfg",
"1o:gzkjf:%ujjdapgq+qgptpu%2gjdjjti,&dkkzf9$wajgipi",
";+7ehddaw#>tdjjft#,sde7wsq%ejsaauqO2ypjxfi*-ggtiaf",
"O8sekzkdd6@qaiap1#gjzsszDPSVBh93e=:tdhlxfjr$8iydjp",
"=dgdxzkfjs*$=$$&O4zjjxL!((((Ea&@@+akjfppdjp>@==*=$",
"*azzkjfyit$:431,$1ipjP/((((((Ty43$0fu38pjja*$6487,",
"$6jjjjjue-&dieas8#ezH/((((((((Yjs>#9q3wdjj9+qdjxzh",
"8$ehzbbl<oybpwijj,-z!(((((((((^Mtt@-tuyfjs&1gaufjn",
"p-*sxjkd@:czhdadcs#z/((((((((((Jgz4O9atpp2#jzjpddj",
"zw#*-*-*o8dfsipajd:t^((((((((((Pzga$#&#$$o6mbjdtpj",
"c9@26896$8saypdjgt*>I((((((((((Aiie#:1>>2&,bbzgdsj",
"e$3jlxmf;*sdpsurq1O8jT((((((((Epqr-&gdtrpe$espadjj",
"-@epkjkje$6ddtya4O-erjGE/((^!Uvyiq+tft&>sj,&tpipsz",
"O4itapadj6$ijy0s3#70pppvQ(~cddpyy*;gs1.1jzt$4paypi",
">gdpyw8efy#$-&$&O8dysayv!(Q1#&&#$O9ff$.tjfh1+%*%*$",
"-tajsqwrsr+-7644*1sudasn!(Q433>4>O4zq &sjja-*6426<",
"$>paaeeuf>&ydzzzt#tjjdNT((^IJstjs:&s- 8zfk0+8pdjjd",
"6$wppewr7o2razgkg,-jMF!((((((TMdtq&-.Xszkd*<dyejxx",
"a;>pdp9e$%eysjfdga-B!(((((/(((!Lzu1. &gjs3#djdpdgj",
"d9#-**%#O30eufzgkkcQ(((/((QFQ(((EsX  X===o2kddpysj",
"s4+16332#8tqtsfggMW(((QH^(EkN!(((Rt   +47&&idpssdp",
"9#2pdjjs:%iiytussV/(/PzV/(YqeBU^((M*r;8jx8+qxzcNcp",
"-#iissysy$8fdste7d!~Fatk^(Te9idZW(IFVjgsss,*ddfczp",
"oqjjjstpa8&tap96=&Mmdzsm~(R8tusizVRKpjfuufuO2uepd9",
"-kgjzjsttp-$&**$o1pakksn!(Q1****&#fdigpffgg>O*$&-$",
"&pjjzzgjde$,633,#;idjffm!(^s43241@8fjjgcvzg;#22<11",
"$1gkczxvf-&jjpjj4O2pgszK(((QCifzd1*pgszcvne@ujjspd",
"4#quiszj9@rzsuer7*&ufiZ^((((Ysfzjp$4ggjzza$:ffzstd",
"p--ruidr$>zcjredst$2qdR(/L!(~vgfff>@espiw;Oikgttuh",
"eq#&**&#ounbhijhia,O*S((IeY((Sfzjji$#&&&$o4vs74idd",
"p6@48642o7bnhdxffd-&M~(^j&S((Txjkky#=:<<,$3dray9wy",
"w$1jzzjd=*sczkzag9+M^((Lg&s/(/Gzzj>=pufkj9#7pfa0we",
"-@tppjzp6#2usgzja&iQ((Ycx82W((^Cjt@qkadjkf>=dkjfds",
"X<ueejfsy,+5eaff6yW((RMszg>g^((Id%;kjauafju$9dddp9",
"%e9eyfsssy$#$&*&<Y((RNzdfxu$z~((Z$rjjfaakjk>O$&=&+",
"%85epgjda9#>72436I/RMgfdgkq+6F/(I-4shjcckj9@%4346,",
"$1eeajzzd-$dzdzx96NMzgpdfi$1fkFPz,&pfzbjfs=oixgsdp",
"1$59tpjzqO6yfadzs--dggsdd1@djjxxtt%4jzxlk9o1vziypa",
"7&*9wehi&-e2epahhy$3dspsqO1kkffdps2#qsjzp>OaNgdse9",
"e5o##&*#otiephhpyf1$:;--@@tdkptistq##-:-&O6p0tjjpe"
};
